<svg version="1.1" id="Layer_1" xmlns="http://www.w3.org/2000/svg" xmlns:xlink="http://www.w3.org/1999/xlink" x="0px" y="0px"
	 width="100%" viewBox="0 0 512 192" enable-background="new 0 0 512 192" xml:space="preserve">
<path fill="#000000" opacity="1.000000" stroke="none" 
	d="
M290.304352,165.280869 
	C274.666534,169.913712 259.298645,174.332382 243.129013,174.246643 
	C237.827118,174.218521 231.804764,174.094498 229.411179,168.215668 
	C227.058258,162.436752 231.405243,158.445984 235.156601,154.927521 
	C248.481613,142.429718 264.702179,134.538437 280.991425,126.872475 
	C289.360474,122.933884 298.017212,119.606667 307.031281,115.797218 
	C303.163330,113.483612 299.195679,114.192299 295.575165,113.532700 
	C289.832794,112.486534 284.140564,111.322372 278.627716,109.466866 
	C264.141693,104.591209 260.587646,92.625084 269.911407,80.429749 
	C276.082855,72.357643 284.263580,66.542816 292.466309,60.841045 
	C317.840515,43.203320 345.596497,31.163675 376.200836,26.163872 
	C390.033691,23.904013 403.721252,24.327398 416.878540,29.903797 
	C420.106171,31.271749 423.351471,32.667191 425.623322,35.499542 
	C426.632751,36.757969 426.997070,38.329739 425.765930,39.595398 
	C424.715302,40.675518 423.135406,40.533157 422.077423,39.657509 
	C403.804291,24.533030 383.320099,28.132305 363.134796,33.432636 
	C332.742249,41.413212 305.439514,55.651958 281.889252,76.699448 
	C279.019257,79.264412 276.525024,82.175865 274.533234,85.482735 
	C269.860779,93.240105 271.734619,100.160645 279.760040,104.274200 
	C288.860443,108.938751 298.876740,109.555580 308.790741,110.717979 
	C319.523010,111.976318 329.567200,108.823570 339.721680,106.342728 
	C342.702271,105.614532 345.665375,105.662086 348.652740,105.692871 
	C350.429321,105.711166 352.731171,105.418182 352.932953,107.966866 
	C353.115173,110.268440 351.011688,110.915428 349.244843,111.338852 
	C345.048645,112.344490 340.839874,113.769150 336.585236,113.975761 
	C320.171417,114.772835 305.691620,121.750290 290.992004,127.893234 
	C276.060364,134.133133 261.814056,141.759735 248.646286,151.260971 
	C244.580734,154.194489 240.657562,157.342300 237.823914,161.534027 
	C234.840591,165.947174 236.053772,168.675812 241.238693,169.713058 
	C249.498642,171.365417 257.443176,169.059860 265.334808,167.368423 
	C279.841583,164.259155 293.992920,159.681335 307.686066,154.082794 
	C315.147644,151.032089 321.695404,145.792099 328.771606,141.742783 
	C340.363495,135.109390 352.416840,129.469040 365.234772,125.581024 
	C366.667725,125.146370 368.118164,124.767464 369.567413,124.389114 
	C373.318970,123.409698 383.578186,116.850121 386.193665,113.743965 
	C387.416138,112.292160 400.691132,112.586548 401.605652,114.262733 
	C403.144531,117.083305 402.298523,119.333023 399.016357,120.985977 
	C396.650360,115.362259 393.402130,118.015900 390.841644,120.511604 
	C388.005524,123.275940 385.748077,126.640175 383.287659,129.781555 
	C381.725250,131.776413 380.141846,133.469559 377.594360,131.157532 
	C376.082031,129.784973 374.755524,130.854996 373.477661,131.475906 
	C354.294067,140.796906 334.673523,149.081680 314.867126,156.994827 
	C306.316223,160.411148 299.767700,167.255600 292.718658,173.087006 
	C289.642242,175.632034 286.784698,178.442596 283.842407,181.148499 
	C282.317810,182.550598 280.457855,184.186157 278.685730,182.324753 
	C276.764221,180.306396 279.015686,178.602203 280.346588,177.348190 
	C284.102264,173.809433 288.068665,170.494934 291.926086,167.062897 
	C292.379364,166.659607 292.670898,166.074539 292.997009,165.628967 
	C292.180237,164.499069 291.379059,165.092209 290.304352,165.280869 
z"/>
<path fill="#000000" opacity="1.000000" stroke="none" 
	d="
M42.137512,142.975601 
	C49.915104,138.494629 57.707184,137.179245 65.923958,140.325851 
	C67.536118,140.943237 70.047951,141.518677 69.004456,143.927826 
	C68.042328,146.149124 66.055405,144.536652 64.690674,143.930496 
	C56.998123,140.513916 50.318890,142.675720 44.366795,147.771164 
	C40.407154,151.160904 40.856697,153.789444 45.644047,155.987259 
	C50.346760,158.146194 55.399902,159.132782 60.529121,159.930359 
	C66.283485,160.825150 71.987259,161.944809 77.847183,161.724335 
	C80.494644,161.624741 83.715294,162.087997 85.053719,159.394363 
	C86.579048,156.324585 83.736359,154.143631 81.976631,152.090912 
	C75.568672,144.616058 68.282799,138.004303 60.998302,131.409576 
	C48.776798,120.345291 36.039761,109.816368 24.848402,97.674156 
	C18.121401,90.375610 12.512006,82.391991 12.564209,71.702728 
	C12.591433,66.128448 14.208942,61.285534 17.430727,56.817551 
	C25.543913,45.566139 37.091209,39.032963 49.411423,33.681911 
	C69.404472,24.998306 90.539574,20.724752 112.002815,17.583567 
	C133.180725,14.484138 154.457077,14.237077 175.751633,14.772133 
	C189.382187,15.114619 202.926208,16.722488 216.033371,20.863146 
	C220.664093,22.326029 225.039307,24.319256 229.059250,27.071480 
	C230.904526,28.334822 232.346634,29.904274 232.969238,32.082378 
	C233.378662,33.514713 232.962128,34.721672 231.601059,35.476833 
	C230.368515,36.160683 229.172363,35.767818 228.479874,34.780998 
	C220.848404,23.905720 208.600845,22.414179 197.203842,20.571924 
	C172.235596,16.535963 147.131058,18.273048 122.089775,21.006454 
	C102.027748,23.196344 82.305534,26.913078 63.163372,33.351986 
	C52.231709,37.029102 41.767372,41.763905 32.620186,48.964054 
	C30.275608,50.809574 28.013847,52.821991 26.007710,55.025143 
	C17.211266,64.685448 16.266691,73.754333 22.656069,85.102592 
	C27.313448,93.374634 34.158863,99.746849 41.004879,106.076584 
	C54.333378,118.399918 67.778381,130.597412 81.199196,142.820618 
	C84.538666,145.862091 87.665321,149.087723 90.060379,152.929153 
	C93.881866,159.058426 91.634628,163.735474 84.506546,165.268784 
	C77.178383,166.845123 69.888382,166.025970 62.666718,165.042664 
	C56.434364,164.194046 50.230988,162.882172 44.302536,160.549728 
	C40.365822,159.000900 36.039856,157.652206 35.233742,152.910019 
	C34.392673,147.962234 38.588158,145.738373 42.137512,142.975601 
z"/>
<path fill="#000000" opacity="1.000000" stroke="none" 
	d="
M88.143280,117.073341 
	C91.081673,114.784698 93.944565,113.154449 97.263718,112.374359 
	C99.188019,111.922096 100.928329,112.129379 102.372925,113.500893 
	C103.293762,114.375153 103.423279,115.558380 103.024765,116.745674 
	C102.640556,117.890366 101.753922,118.026627 100.644882,117.986694 
	C94.230576,117.755760 91.347031,119.691551 88.259186,126.436050 
	C91.456062,125.859848 93.157715,123.528511 95.256210,121.818794 
	C96.887100,120.490059 98.369476,118.295471 100.800034,119.318047 
	C103.192810,120.324722 102.175247,122.749947 102.212746,124.656242 
	C102.229134,125.489166 102.141609,126.323959 103.302460,127.245766 
	C107.565384,125.906776 110.924049,123.125908 112.449745,118.689903 
	C116.897339,105.758369 123.166924,93.589417 128.033127,80.838707 
	C128.269592,80.219093 128.573441,79.617157 128.911835,79.046036 
	C129.820526,77.512383 130.965820,76.205605 132.914032,77.267441 
	C134.688629,78.234673 134.055756,79.801674 133.479645,81.218704 
	C130.972214,87.386055 128.430634,93.539574 125.934471,99.711456 
	C122.752449,107.579208 119.527061,115.432076 117.108147,123.582390 
	C116.641418,125.154991 115.701469,126.880554 117.467728,128.141739 
	C119.076904,129.290741 120.609787,128.241837 122.127304,127.524353 
	C126.356239,125.524925 129.612640,122.624565 131.339157,118.156410 
	C131.816132,116.921974 132.454681,115.724182 133.187531,114.621521 
	C133.948853,113.476028 134.994629,112.505539 136.518890,113.303726 
	C137.764297,113.955887 137.626434,115.137466 137.496628,116.365067 
	C137.344803,117.801338 136.109680,119.062469 136.759903,120.646355 
	C150.144836,115.203812 150.144836,115.203812 151.381714,119.717583 
	C154.300140,118.110779 157.152359,116.406525 160.130676,114.962212 
	C161.442520,114.326042 163.099075,113.963356 164.395981,115.097382 
	C165.796127,116.321716 164.996628,117.814293 164.633652,119.261200 
	C164.131195,121.263962 162.699493,123.105118 163.314590,125.674812 
	C167.154541,124.795990 169.507584,122.205597 171.987885,119.831772 
	C175.386200,116.579346 178.952911,113.577919 183.674271,112.469421 
	C188.559921,111.322350 190.393082,113.354614 189.390701,118.125946 
	C188.801620,120.929939 188.966522,123.892334 188.780594,126.977615 
	C194.354279,127.952698 195.715454,121.412346 200.148880,120.934204 
	C202.110199,122.967766 200.749664,124.407394 199.637695,125.826828 
	C195.374817,131.268372 190.402832,132.344574 183.640778,129.110886 
	C182.046799,128.348648 181.158829,129.236984 180.036865,129.859772 
	C175.968353,132.118134 171.884949,133.960144 167.617020,130.264465 
	C166.893555,129.638016 166.107925,129.923111 165.271896,130.066391 
	C156.511047,131.567719 155.848282,130.930557 157.445374,122.209152 
	C153.806335,122.675171 151.897568,125.623055 149.261322,127.289871 
	C148.141144,127.998123 147.174957,128.945251 146.099792,129.730423 
	C144.437607,130.944290 142.520706,132.151276 140.668701,130.600113 
	C138.790680,129.027145 140.373016,127.269707 141.163086,125.680801 
	C141.504089,124.995026 141.904037,124.338570 142.869858,122.605110 
	C139.217239,125.254829 136.479782,127.071358 133.938995,129.130554 
	C131.302078,131.267654 128.932785,133.578384 125.082100,131.606644 
	C123.673134,130.885178 122.266930,132.294113 120.841347,132.662018 
	C117.536781,133.514832 114.205711,134.303726 111.783875,130.910980 
	C110.250046,128.762238 108.646942,129.941772 106.931984,130.479538 
	C102.995819,131.713791 99.083946,132.561646 96.148926,128.050613 
	C92.966881,129.916534 90.073761,132.307770 86.194588,132.285187 
	C81.461060,132.257614 79.836845,129.922501 81.569878,125.559937 
	C82.898689,122.214928 85.156532,119.592155 88.143280,117.073341 
M183.004395,117.654427 
	C179.305023,119.714226 176.238297,122.318626 174.356049,127.457710 
	C179.300552,124.366043 182.739288,121.278000 186.143921,118.137566 
	C185.224487,117.059998 184.414017,117.266930 183.004395,117.654427 
z"/>
<path fill="#000000" opacity="1.000000" stroke="none" 
	d="
M448.280365,131.369247 
	C442.424530,133.123703 437.462158,131.418747 432.157684,128.821777 
	C429.560791,129.799911 427.009186,132.211945 423.487335,132.322754 
	C418.612335,132.476120 416.382263,129.794617 418.335480,125.453186 
	C421.466492,118.493782 426.994446,114.098534 434.364471,112.319313 
	C438.594482,111.298111 440.410156,113.643837 439.553375,117.856148 
	C438.952026,120.812851 438.965637,123.894653 438.678558,127.222664 
	C442.738464,127.075638 444.834961,125.006134 446.334290,122.063675 
	C447.468597,119.837631 448.555328,117.586288 449.737396,115.386055 
	C450.461761,114.037788 451.420471,112.577194 453.192291,113.229584 
	C455.386627,114.037552 454.622864,115.886993 454.191467,117.493431 
	C453.940826,118.426811 453.657867,119.351517 453.353027,120.406097 
	C458.818024,120.506264 463.023376,111.495369 469.265961,118.785362 
	C471.926636,118.426758 473.892670,116.101913 476.482422,115.072502 
	C478.052917,114.448227 479.745667,113.854332 481.249512,114.969353 
	C483.009247,116.274094 481.833038,117.965469 481.546875,119.544746 
	C481.232147,121.281418 479.786377,122.843246 480.828308,125.169449 
	C484.945709,124.359550 487.615112,121.592697 490.056824,118.488869 
	C491.178406,117.063202 492.301605,114.979477 494.387787,116.086037 
	C497.034241,117.489807 494.958496,119.505829 494.440857,121.281998 
	C493.909912,123.103622 492.015625,124.575462 492.962952,126.874771 
	C495.882660,128.270523 497.701172,124.700897 500.536713,125.246483 
	C502.255524,128.092636 500.831329,129.733871 498.297119,131.031906 
	C492.964600,133.763229 489.085663,133.176468 485.535004,129.049118 
	C473.705200,132.458313 472.619171,131.849060 474.497742,122.109665 
	C471.046997,123.298538 468.678802,125.490761 466.166870,127.432877 
	C464.850067,128.450974 463.574402,129.535477 462.182526,130.439758 
	C460.711029,131.395737 459.008545,131.823669 457.556427,130.542191 
	C456.078979,129.238373 457.169495,127.787392 457.755249,126.448975 
	C458.073273,125.722336 458.473267,125.031593 459.551147,122.932381 
	C455.086914,126.278671 451.830688,128.719437 448.280365,131.369247 
M428.960876,124.266068 
	C431.339294,122.208878 433.717712,120.151688 436.723022,117.552277 
	C430.782593,117.948380 427.079803,121.124451 424.967072,127.110764 
	C426.347778,126.151237 427.402863,125.418007 428.960876,124.266068 
z"/>
<path fill="#000000" opacity="1.000000" stroke="none" 
	d="
M408.899231,121.885414 
	C406.498596,124.893761 404.371613,127.665939 402.185577,130.390732 
	C401.085754,131.761612 399.633331,132.960388 397.931122,131.727753 
	C396.323639,130.563690 397.466217,128.941132 398.103851,127.669968 
	C400.192169,123.506973 402.241180,119.309555 404.620850,115.313263 
	C405.918640,113.133858 407.355804,110.407181 410.779022,113.381042 
	C412.563080,114.930916 414.914825,113.385689 416.997528,113.062103 
	C419.425842,112.684830 421.462769,113.231071 421.952240,115.915848 
	C422.303986,117.845444 421.391418,119.649315 419.676849,120.568245 
	C416.940613,122.034775 417.203217,118.734909 415.771088,117.790474 
	C412.975983,117.956108 411.042145,119.756569 408.899231,121.885414 
z"/>
<path fill="#000000" opacity="1.000000" stroke="none" 
	d="
M494.840271,109.950928 
	C496.014771,107.102997 496.693787,104.165504 500.453461,104.141273 
	C502.246857,107.523682 500.749420,110.004570 498.308868,111.879250 
	C496.821320,113.021912 495.114410,112.777580 494.840271,109.950928 
z"/>
</svg>