<svg xmlns="http://www.w3.org/2000/svg" viewBox="0 0 500 500"><g id="freepik--Floor--inject-334"><path id="freepik--floor--inject-334" d="M77.66,241.13c-95.18,54.95-95.17,144.05,0,199s249.49,54.95,344.67,0,95.17-144,0-199S172.84,186.18,77.66,241.13Z" style="fill:#f5f5f5"></path></g><g id="freepik--Plants--inject-334"><g id="freepik--plants--inject-334"><path d="M477.17,389.46a4.72,4.72,0,0,1,1.72-4.77c1.9-1.59,4.48-2.24,4.73-2.08s0,2.78-2,4.9A5.56,5.56,0,0,1,477.17,389.46Z" style="fill:#E64D61"></path><path d="M476,395.5a4.78,4.78,0,0,1,3.72-3.46c2.42-.55,5,0,5.16.3s-1.27,2.47-4,3.46A5.58,5.58,0,0,1,476,395.5Z" style="fill:#E64D61"></path><path d="M471.4,396.42a4.76,4.76,0,0,1-2.78-4.25c-.12-2.47.69-4.76,1-4.87s2.47,1.85,3.09,4.37A5,5,0,0,1,471.4,396.42Z" style="fill:#E64D61"></path><path d="M468.72,417.29a19.59,19.59,0,0,1-.16-6.66,37.09,37.09,0,0,1,1.16-6.1,48.87,48.87,0,0,1,5.06-11.88,26.45,26.45,0,0,1,5.1-6.6s.16.05.12.1a38.12,38.12,0,0,0-4.17,6.3,43.84,43.84,0,0,0-3,6.06,46.52,46.52,0,0,0-2.92,11.1,63.91,63.91,0,0,0-.36,7.58A.42.42,0,0,1,468.72,417.29Z" style="fill:#37474f"></path><path d="M471.89,398.36a14.51,14.51,0,0,1-1.19-3.14,8.6,8.6,0,0,1-.33-3.19c0-.15.14.05.15.14a24.82,24.82,0,0,0,.68,2.8,11,11,0,0,0,1.3,2.75.66.66,0,0,1,0,.77A.35.35,0,0,1,471.89,398.36Z" style="fill:#37474f"></path><path d="M472.14,398a12.34,12.34,0,0,1,3.71-2.85,13.77,13.77,0,0,1,1.94-.92,8.54,8.54,0,0,1,2.48-.58s.23.08.17.09c-.66.2-1.64.58-2.33.88a12.51,12.51,0,0,0-2,1.07,19.93,19.93,0,0,0-3.55,2.79C472.32,398.72,472,398.24,472.14,398Z" style="fill:#37474f"></path><path d="M472.63,404a4.74,4.74,0,0,1,2.91-4.16c2.25-1,4.91-1,5.11-.78s-.73,2.69-3.2,4.22A5.54,5.54,0,0,1,472.63,404Z" style="fill:#E64D61"></path><path d="M469.33,407.29a12.32,12.32,0,0,1,3-3.56,13.41,13.41,0,0,1,1.7-1.3,8.35,8.35,0,0,1,2.31-1.08s.24,0,.18,0a23.69,23.69,0,0,0-2.1,1.34,13.23,13.23,0,0,0-1.73,1.46,20.45,20.45,0,0,0-2.9,3.47C469.66,407.93,469.21,407.53,469.33,407.29Z" style="fill:#37474f"></path></g><g id="freepik--plants--inject-334"><path d="M463.21,378.05a5.17,5.17,0,0,0-.91-5.43c-1.73-2.07-4.36-3.26-4.66-3.14s-.53,3,1.17,5.62A6.07,6.07,0,0,0,463.21,378.05Z" style="fill:#E64D61"></path><path d="M463.24,384.72a5.18,5.18,0,0,0-3.3-4.42c-2.48-1.05-5.37-.91-5.58-.67s.88,2.89,3.61,4.47A6.09,6.09,0,0,0,463.24,384.72Z" style="fill:#E64D61"></path><path d="M468,386.59a5.16,5.16,0,0,0,3.8-4c.61-2.62.18-5.22-.09-5.39s-3,1.5-4.16,4.08A5.42,5.42,0,0,0,468,386.59Z" style="fill:#E64D61"></path><path d="M466.83,409.42a21.17,21.17,0,0,0,1.47-7.09,41.12,41.12,0,0,0-.06-6.75,53.06,53.06,0,0,0-3.1-13.67,28.42,28.42,0,0,0-4.17-8c0-.05-.18,0-.15.08a41.76,41.76,0,0,1,3.24,7.54,49.07,49.07,0,0,1,2,7.05,51.06,51.06,0,0,1,1,12.43,72.82,72.82,0,0,1-1.09,8.17A.45.45,0,0,0,466.83,409.42Z" style="fill:#37474f"></path><path d="M467.12,388.58a16,16,0,0,0,1.88-3.13,9.17,9.17,0,0,0,1-3.34c0-.17-.15,0-.19.12a24.93,24.93,0,0,1-1.26,2.85,11.61,11.61,0,0,1-1.93,2.69.73.73,0,0,0-.11.83A.39.39,0,0,0,467.12,388.58Z" style="fill:#37474f"></path><path d="M466.92,388.17a13.28,13.28,0,0,0-3.41-3.77,14.86,14.86,0,0,0-1.9-1.35,9.28,9.28,0,0,0-2.54-1.1s-.26,0-.2.06a23.82,23.82,0,0,1,2.33,1.39,13.27,13.27,0,0,1,1.93,1.53,21.72,21.72,0,0,1,3.26,3.66C466.59,388.87,467.07,388.43,466.92,388.17Z" style="fill:#37474f"></path><path d="M465.24,394.48a5.16,5.16,0,0,0-2.31-5c-2.2-1.55-5.05-2-5.31-1.82s.26,3,2.6,5.12A6.1,6.1,0,0,0,465.24,394.48Z" style="fill:#E64D61"></path><path d="M468.12,398.62a13.13,13.13,0,0,0-2.55-4.4A16,16,0,0,0,464,392.5a9.48,9.48,0,0,0-2.25-1.6s-.27,0-.21,0a25.72,25.72,0,0,1,2,1.84,13.45,13.45,0,0,1,1.57,1.9,21.36,21.36,0,0,1,2.42,4.26C467.65,399.24,468.21,398.9,468.12,398.62Z" style="fill:#37474f"></path></g><g id="freepik--plants--inject-334"><path d="M30.07,385.88a4.74,4.74,0,0,0-1.72-4.77c-1.9-1.59-4.48-2.24-4.73-2.08s0,2.78,2,4.9A5.56,5.56,0,0,0,30.07,385.88Z" style="fill:#E64D61"></path><path d="M31.2,391.92a4.78,4.78,0,0,0-3.72-3.46c-2.42-.55-5,.05-5.16.3s1.27,2.47,4,3.46A5.58,5.58,0,0,0,31.2,391.92Z" style="fill:#E64D61"></path><path d="M35.84,392.84a4.76,4.76,0,0,0,2.78-4.25c.12-2.47-.69-4.76-1-4.87s-2.47,1.85-3.09,4.37A5,5,0,0,0,35.84,392.84Z" style="fill:#E64D61"></path><path d="M38.52,413.71a19.59,19.59,0,0,0,.16-6.66,38,38,0,0,0-1.16-6.1,48.51,48.51,0,0,0-5.07-11.88,26,26,0,0,0-5.09-6.6s-.16,0-.12.1a38.12,38.12,0,0,1,4.17,6.3,43.84,43.84,0,0,1,3,6.06A46.52,46.52,0,0,1,37.33,406a63.91,63.91,0,0,1,.36,7.58A.42.42,0,0,0,38.52,413.71Z" style="fill:#37474f"></path><path d="M35.35,394.78a14.51,14.51,0,0,0,1.19-3.14,8.6,8.6,0,0,0,.33-3.19c0-.15-.14.05-.16.14a22.79,22.79,0,0,1-.67,2.8,11,11,0,0,1-1.3,2.75.66.66,0,0,0,0,.77A.35.35,0,0,0,35.35,394.78Z" style="fill:#37474f"></path><path d="M35.1,394.44a12.34,12.34,0,0,0-3.71-2.85,13.77,13.77,0,0,0-1.94-.92,8.54,8.54,0,0,0-2.48-.58s-.23.08-.17.09c.66.2,1.64.58,2.33.88a12.51,12.51,0,0,1,2,1.07,19.93,19.93,0,0,1,3.55,2.79C34.92,395.14,35.28,394.65,35.1,394.44Z" style="fill:#37474f"></path><path d="M34.61,400.43a4.74,4.74,0,0,0-2.91-4.16c-2.25-1-4.91-1-5.11-.78s.73,2.69,3.2,4.22A5.54,5.54,0,0,0,34.61,400.43Z" style="fill:#E64D61"></path><path d="M37.91,403.71a12.32,12.32,0,0,0-3-3.56,14.16,14.16,0,0,0-1.7-1.3,8.35,8.35,0,0,0-2.31-1.08s-.24,0-.18.05c.6.33,1.48.9,2.1,1.34a13.23,13.23,0,0,1,1.73,1.46,20.45,20.45,0,0,1,2.9,3.47C37.58,404.35,38,404,37.91,403.71Z" style="fill:#37474f"></path></g><g id="freepik--plants--inject-334"><path d="M44,374.47a5.17,5.17,0,0,1,.91-5.44c1.73-2.06,4.36-3.25,4.66-3.13s.53,3-1.17,5.62A6.07,6.07,0,0,1,44,374.47Z" style="fill:#E64D61"></path><path d="M44,381.14a5.18,5.18,0,0,1,3.3-4.42c2.48-1.05,5.37-.92,5.58-.67s-.88,2.89-3.61,4.47A6.09,6.09,0,0,1,44,381.14Z" style="fill:#E64D61"></path><path d="M39.22,383a5.17,5.17,0,0,1-3.8-4c-.61-2.62-.19-5.22.09-5.39s3,1.5,4.16,4.08A5.42,5.42,0,0,1,39.22,383Z" style="fill:#E64D61"></path><path d="M40.41,405.84a21.17,21.17,0,0,1-1.47-7.09A41.11,41.11,0,0,1,39,392a53.06,53.06,0,0,1,3.1-13.67,28.42,28.42,0,0,1,4.17-8c0-.05.18,0,.15.08a41.76,41.76,0,0,0-3.24,7.54,49.07,49.07,0,0,0-2,7.05,50.57,50.57,0,0,0-1,12.43,72.82,72.82,0,0,0,1.09,8.17A.45.45,0,0,1,40.41,405.84Z" style="fill:#37474f"></path><path d="M40.12,385a16,16,0,0,1-1.88-3.13,9.17,9.17,0,0,1-1-3.35c0-.16.15,0,.19.13a24.93,24.93,0,0,0,1.26,2.85,11.61,11.61,0,0,0,1.93,2.69.73.73,0,0,1,.11.83A.39.39,0,0,1,40.12,385Z" style="fill:#37474f"></path><path d="M40.32,384.59a13.15,13.15,0,0,1,3.41-3.77,14.86,14.86,0,0,1,1.9-1.35,9.15,9.15,0,0,1,2.54-1.1s.26,0,.2.06A23.82,23.82,0,0,0,46,379.82a13.27,13.27,0,0,0-1.93,1.53A21.72,21.72,0,0,0,40.85,385C40.65,385.29,40.17,384.85,40.32,384.59Z" style="fill:#37474f"></path><path d="M42,390.9a5.16,5.16,0,0,1,2.31-5c2.2-1.55,5-2,5.31-1.82s-.26,3-2.6,5.12A6.1,6.1,0,0,1,42,390.9Z" style="fill:#E64D61"></path><path d="M39.12,395a13.13,13.13,0,0,1,2.55-4.4,16,16,0,0,1,1.57-1.72,9.48,9.48,0,0,1,2.25-1.6s.27,0,.21,0a25.72,25.72,0,0,0-2,1.84,14,14,0,0,0-1.57,1.89,21.7,21.7,0,0,0-2.42,4.27C39.59,395.65,39,395.32,39.12,395Z" style="fill:#37474f"></path></g></g><g id="freepik--character-5--inject-334"><g id="freepik--Character--inject-334"><g id="freepik--Bottom--inject-334"><path d="M444.92,283.21c.88,6.38,1,4,1.39,10.64.87,13.71.8,30.69,2.43,47.5a177,177,0,0,1,2.36,20.74c.56,8.54,0,19.63.34,29.16l.16,4.59c-.74,6.44-10.77,6.19-12.19,2.49,0,0-7.65-31.38-10.83-45.18-2.33-10.09-5-24.55-8.22-38.57l-3.45,25.27s1.55,6.59.2,18.23c-1.06,9.13-3.41,25.86-4.81,35.65a7.29,7.29,0,0,1-5.53,5.23c-3.59.78-8.84-.66-7.91-3.7,1.29-4.21-2.2-41.05-3-50.54-1.79-20.86-1.35-46.7.2-61.4Z" style="fill:#ffbda7"></path><path d="M420.36,314.58c-1.87-7.66-4.14-16.08-4.14-16.08s-7.55.09-11.45-5.31c2.22,5.77,9.36,8.06,9.36,8.06L418.39,320l-1.48,19.87Z" style="fill:#f0997a"></path><path d="M377.3,415.49a4,4,0,0,0,.87,3.87c1.56,1.28,6,3.27,11.77,2.22s9.09-1.86,11.32-4,4.24-4.36,6.83-5.09c2.4-.67,6.06-1.87,6.8-2.69s.47-4.31.47-4.31Z" style="fill:#263238"></path><path d="M413,390.75s.33-.3.52.5.54,3.74,1,5.3a41.41,41.41,0,0,1,.84,10.15c-.24,1.8-5.21,3.15-7.69,4.28a23.92,23.92,0,0,0-6.87,5c-2.61,2.47-8.51,4-12.28,4.12-4.46.17-9.55-1.09-10.79-3.2-1.55-2.61-.09-4.68,6.38-8.2,1.22-.66,5-3.21,6.42-4.27a29.76,29.76,0,0,0,4.44-3.88,18.31,18.31,0,0,0,2.49-3.25,9.16,9.16,0,0,0,.73-2.14c.2-.76.37-1.53.5-2.31a1.64,1.64,0,0,1,.54-1.17,1.39,1.39,0,0,1,.86-.11,22.79,22.79,0,0,1,4.48.82,2.71,2.71,0,0,1,1.54.93,2.55,2.55,0,0,1,.35,1.27,10,10,0,0,0,.1,1.34.87.87,0,0,0,.19.44c.23.22.59,0,.77-.18a17.83,17.83,0,0,0,1.68-2.32c.29-.42,1.68-.74,2.06-1.08s1.4-.44,1.7-.79S413,391.31,413,390.75Z" style="fill:#37474f"></path><path d="M400.75,416a34.54,34.54,0,0,1,3-2.61h0s-6.91,3.25-10.16,1.15c-2.09-1.34-1.2-3.15-1.18-3.71s-5.08-2.73-7.05-2.88h0c-.53.34-1,.62-1.26.77-6.47,3.52-7.93,5.59-6.38,8.2,1.24,2.11,5,3.62,10.72,3.34C392.16,420.08,398.14,418.47,400.75,416Z" style="fill:#455a64"></path><path d="M392.84,409.17c-4,1.91-2.24,2.63-1.08,2.75s6.8-3.66,10.86-7.35c4.23-3.85,7.89-7.88,9.47-9.3.58-.53,1.21-1.17,1.77-1.77-.15-.94-.28-1.8-.38-2.25a1.33,1.33,0,0,0-.69-1l-.2,1.41a5.28,5.28,0,0,1-1.45,1,5.17,5.17,0,0,0-2,1.2,17.83,17.83,0,0,1-1.68,2.32C404.1,401.15,396.87,407.25,392.84,409.17Z" style="fill:#263238"></path><path d="M392,411.27a.36.36,0,0,0,.25-.11.43.43,0,0,0,0-.6,9.55,9.55,0,0,0-7.67-2.74.42.42,0,0,0-.34.48.41.41,0,0,0,.47.36,8.87,8.87,0,0,1,6.94,2.47A.37.37,0,0,0,392,411.27Z" style="fill:#f0f0f0"></path><path d="M395.52,409a.35.35,0,0,0,.25-.1.44.44,0,0,0,0-.6,9.58,9.58,0,0,0-7.6-2.93.42.42,0,0,0-.35.48.41.41,0,0,0,.45.37,8.89,8.89,0,0,1,6.89,2.64A.37.37,0,0,0,395.52,409Z" style="fill:#f0f0f0"></path><path d="M398.72,406.42a.43.43,0,0,0,.26-.11.45.45,0,0,0,0-.6,9.57,9.57,0,0,0-7.67-2.75.43.43,0,0,0-.34.49.41.41,0,0,0,.46.36,8.8,8.8,0,0,1,6.94,2.47A.43.43,0,0,0,398.72,406.42Z" style="fill:#f0f0f0"></path><path d="M401.55,404.1a.35.35,0,0,0,.26-.1.44.44,0,0,0,.06-.6,9.62,9.62,0,0,0-7.55-3.08.43.43,0,0,0,.09.85,8.87,8.87,0,0,1,6.83,2.78A.4.4,0,0,0,401.55,404.1Z" style="fill:#f0f0f0"></path><path d="M404.59,401.38a.38.38,0,0,0,.25-.09.43.43,0,0,0,.06-.6c-1.61-2.09-5.23-3.45-8.25-3.08a.42.42,0,0,0,.09.84c2.72-.33,6.1.92,7.53,2.78A.38.38,0,0,0,404.59,401.38Z" style="fill:#f0f0f0"></path><path d="M439.45,420.39c.28,4.2.95,7,2.42,9.46s4.22,3.25,7,2.53,6.28-2.63,7-6.25a23.83,23.83,0,0,0-.11-10Z" style="fill:#263238"></path><path d="M451.44,391.25c1,.32,1.06,5.79,1.78,11.44.78,6.06,1.83,7.89,2.52,12.86.78,5.67.42,7.57-1.48,11s-8.7,6.78-12.12,1.86c-2.79-4-2.85-7.82-2.67-13.48a121.14,121.14,0,0,0-.18-13.5c-.27-4.25-2.14-7.86-1.15-8.33.08.63,1.56,5,2.32,4.48.34-.07.4-.66.31-1.77,0-.48-.26-1.49.09-1.8a10.37,10.37,0,0,1,4.7-1.54,9.05,9.05,0,0,1,4.81.28,1,1,0,0,1,.48.95c0,.45,0,.79.11,1.57,0,.17.11.75.25.82.3.14.42-.69.39-1s-.06-1-.08-1.36S451.48,392.51,451.44,391.25Z" style="fill:#37474f"></path><path d="M455.49,413.6c.12.82.72,5.93-.7,6.91s-2.44-3.21-2.44-3.21-3.66-1.16-8.93,1.21c.28.88-.5,3.78-2,3.17s-2-6.2-2-6.28c-.16,5.44,0,9.1,2.68,13,3.42,4.92,10.23,1.57,12.12-1.86s2.26-5.32,1.48-11C455.66,415,455.59,414.12,455.49,413.6Z" style="fill:#455a64"></path><path d="M451.94,417.66c0,2,1.82,1.35,2.06-1.53.36-4.32-.73-8.46-.78-13.44-.72-5.65-.63-11.35-1.78-11.44a41.4,41.4,0,0,0,.07,4.75c.07,1.06,1.15,9,1,13.37C452.44,413.21,451.89,415.61,451.94,417.66Z" style="fill:#263238"></path><path d="M444,418.46c-.39-2-1-2.59-1.47-6.41s-2.05-10.51-2.87-14.64a34.87,34.87,0,0,0-1.55-4.32c-.71.35-.33,2.29.26,4.85s1,4.13,1.37,6.58c1,4.89,1.24,10.07,1.91,12.89S444.43,420.47,444,418.46Z" style="fill:#263238"></path><path d="M443.58,418.56a.43.43,0,0,0,.16-.05,13.07,13.07,0,0,1,8.78-.91.42.42,0,0,0,.51-.31.45.45,0,0,0-.31-.54,13.65,13.65,0,0,0-9.38,1,.44.44,0,0,0-.18.59A.45.45,0,0,0,443.58,418.56Z" style="fill:#f0f0f0"></path><path d="M442.39,414.48a.43.43,0,0,0,.14,0,17.28,17.28,0,0,1,10.24-1.17.42.42,0,0,0,.51-.33.45.45,0,0,0-.33-.52,18,18,0,0,0-10.8,1.23.45.45,0,0,0-.19.59A.42.42,0,0,0,442.39,414.48Z" style="fill:#f0f0f0"></path><path d="M453.32,409.94a.41.41,0,0,0,.36-.29.44.44,0,0,0-.28-.55c-5.13-1.8-11.83.65-12,.76a.44.44,0,0,0-.18.59.43.43,0,0,0,.58.18c.05,0,6.6-2.39,11.38-.71A.37.37,0,0,0,453.32,409.94Z" style="fill:#f0f0f0"></path><path d="M452.45,406.26a.4.4,0,0,0,.35-.28.44.44,0,0,0-.26-.56c-5.65-2.08-11.39,1.07-11.59,1.2a.43.43,0,0,0-.14.59.42.42,0,0,0,.59.15s5.61-3.06,10.86-1.12A.43.43,0,0,0,452.45,406.26Z" style="fill:#f0f0f0"></path><path d="M452.05,401.78a.4.4,0,0,0,.35-.27.45.45,0,0,0-.25-.57c-5.3-2-11.45,1.19-11.67,1.32a.43.43,0,0,0-.15.59.41.41,0,0,0,.58.16s6-3.15,10.95-1.25A.43.43,0,0,0,452.05,401.78Z" style="fill:#ebebeb"></path></g><g id="freepik--Top--inject-334"><g id="freepik--Backpack--inject-334"><path d="M465.72,244.71c-.61,1.49-3.08.46-7.28-.46s-2.89-21.41-2.89-21.41,3.86,1.66,5.91,7.38S465.72,244.71,465.72,244.71Z" style="fill:#263238"></path><path d="M421.29,214.67c-3.74.51-11.31,6.09-12.17,9.2s1.89,52.56,5.66,55.92c4.74,4.22,35.06,12.31,43.62,10.7a14.76,14.76,0,0,0,11.11-8.34c1.29-3.38-8.84-52.78-11.65-56C453.32,220.92,426.05,214,421.29,214.67Z" style="fill:#37474f"></path><path d="M463.87,247.24c-.38-1.76-.78-3.49-1.17-5.17-.16-.67-.32-1.33-.47-2-.32-1.3-.63-2.55-.94-3.73-.15-.6-.3-1.17-.45-1.73-.23-.83-.45-1.62-.66-2.36s-.42-1.44-.63-2.07c-.06-.21-.13-.41-.19-.61a12.75,12.75,0,0,0-1.5-3.45c-.13-.15-.27-.29-.42-.44l-.16-.14-.34-.29-.21-.17-.37-.26-.23-.17-.58-.37-.4-.23-.27-.16-.46-.25-.23-.12-.54-.26c-3.13,1.91-3.62,1.13-3.7,1.2s-3.27,2.74-2.3,7.92l4.62,28.4.31,2c.48,2.78,4.38,29.85,9.74,26.23a1,1,0,0,1,.3-.1c5-2.71,6.27-5.16,6.89-6.79a4.41,4.41,0,0,0,.12-1.46c0-.28,0-.59,0-.94,0-.17,0-.34,0-.53-.05-.55-.11-1.17-.19-1.85,0-.22-.05-.45-.08-.69-.46-3.55-1.3-8.44-2.32-13.64-.2-1.05-.41-2.1-.63-3.16-.15-.71-.29-1.42-.44-2.13-.08-.35-.15-.71-.23-1.06C465.51,256,464,247.94,463.87,247.24Z" style="fill:#455a64"></path><path d="M458.93,228.37a4.42,4.42,0,0,0-.91-2.51c-4.55-5.23-32-11.85-36.73-11.19-3.74.51-11.31,6.09-12.17,9.2a22.47,22.47,0,0,0-.26,3.92c8.07,2.79,37.92,10.24,39.78,9.22,2.3-1.26,10.13-8.25,10.29-8.63Z" style="fill:#263238"></path><path d="M468.06,262.69c-.24-.08-3.9-2-4.31-2.13-.72-.23-6.88,5.26-7.6,6.52-.5.87,2.39,12.67,2.91,13.46.18.29,4.11,1.85,4.3,2.14.51.79,7.2-4.9,7.58-6.62S469.12,263,468.06,262.69Z" style="fill:#37474f"></path><path d="M460.46,269.21c.19,2.48,2.38,12.68,2.9,13.47s7.2-4.9,7.58-6.62-1.82-13-2.88-13.37C467.33,262.46,461.17,268,460.46,269.21Z" style="fill:#263238"></path><path d="M463.76,260.56c.4.13,4.05,2.06,4.29,2.13-.71-.23-6.88,5.27-7.59,6.52l-4.3-2.13C456.87,265.82,463,260.32,463.76,260.56Z" style="opacity:0.4"></path><path d="M456.16,267.08c.64-.59,2.46.57,3.52,1.22s1.28,1.87,3.77,3.46a3.39,3.39,0,0,0,5.2-2.44c.24-2.17.54-6.56-.87-7.89a4,4,0,0,0-5.12-.65C461.11,262,456.06,265.17,456.16,267.08Z" style="fill:#37474f"></path><path d="M465.37,267.83a1.81,1.81,0,0,0-.57,1.79.73.73,0,0,0,1.2.46,1.79,1.79,0,0,0,.57-1.79A.72.72,0,0,0,465.37,267.83Z" style="fill:#E64D61"></path><path d="M448.38,237.09s1.12-4.52,6-9.6c3.19-3.34,5.58.76,6.94,3.32,1.65,3.1,3.54,12.81,3.8,13.88s1.51.65.2-6.19-3.34-13.26-10.41-16.3c-9.52-4.09-30.92-7.74-37-5.35s-10.53,4.44-9,10.94C408.86,227.79,428,239,448.38,237.09Z" style="fill:#455a64"></path></g><g id="freepik--Arm--inject-334"><path d="M374.79,197.56c2.92-10.62,5.24-18.71,5.9-22.14a18.51,18.51,0,0,0,.26-4.52,21.27,21.27,0,0,1,.5-5.87c.24-1.15.47-2.31.7-3.46.76-3.1,1.92-10.54,6.11-10.21A3,3,0,0,1,390.9,149a5.41,5.41,0,0,0,1.71-.14c1.15-.87,1.69-1.53,3.15-.78.37-.84,1.09-1.92,2.14-1.64,1.49.72,1.14,3,1,4.39-.78,3.51-3.51,8.35-3.79,11.51.06,1.94,2.4-2.54,2.72-2.88a3.2,3.2,0,0,1,2.78-1.19c2,.18.55,2.37.39,3.52a18.37,18.37,0,0,1-3.31,7.77c-.65.75-1.25,1.38-1.77,1.93a9.65,9.65,0,0,0-2.63,5.84L391,203.22a97.18,97.18,0,0,0,6.52,9.4,34.9,34.9,0,0,0,10.87,9.9c5.47,13.57-13.27,31.37-13.49,23.66-.2-7-3.86-11.69-7.61-17.74-6.64-10.74-8.62-13.9-10.5-17.39C373.46,204.87,372.82,204.72,374.79,197.56Z" style="fill:#ffbda7"></path><path d="M386.81,168a9.16,9.16,0,0,1,1.33-2.2,6.64,6.64,0,0,1,4.43-2.63c.2,0,.12.21,0,.29-.67.48-1.41.84-2.06,1.35a10.12,10.12,0,0,0-1.75,1.71,8.54,8.54,0,0,0-1.17,2,8.8,8.8,0,0,0-.38,1.09,2.42,2.42,0,0,1-.39,1.06c-.11.14-.43.2-.5,0A4.25,4.25,0,0,1,386.81,168Z" style="fill:#f0997a"></path></g><path d="M442.8,226c3.58,1.73,4.87,4.22,4.45,12.21-.11,2.11-.4,5.59-1,11.12-1.13,11.09.11,15.29.44,18.92s1.92,10.25,3.71,22.49,2.32,19.64,3.18,34.54c-14.27,12.33-47.81,12.42-62.05,1.67.62-19.25,2.72-80.57,3.95-86.86,2.4-12.22,8.67-16.62,13-17.63.45-.11,9.51-1.77,15.63-1.21A128.53,128.53,0,0,1,442.8,226Z" style="fill:#E64D61"></path><g id="freepik--arm--inject-334"><g id="freepik--Book--inject-334"><polygon points="437.07 322.06 436.48 295.86 469.05 275.57 469.64 301.76 437.07 322.06"></polygon><path d="M437.36,296.07l.63,25.41a8.1,8.1,0,0,1,4.39,2.48l-.58-25.25A19.23,19.23,0,0,0,437.36,296.07Z" style="fill:#f5f5f5"></path><path d="M442.71,300.33a4.08,4.08,0,0,0-1.95-3.17l-3.31-1.77c-1-.56-1.86-.05-1.82,1.14l.62,25.09.82.44-.55-24.77c0-.71.47-1,1.09-.68l3.06,1.66a2.49,2.49,0,0,1,1.17,1.91l.57,24.74.93.5Z" style="fill:#263238"></path><path d="M443.34,325.42l32.57-20.29L475.28,280a4.08,4.08,0,0,0-1.95-3.17L470,275.1a1.28,1.28,0,0,0-1.31-.09L436.14,295.3a1.28,1.28,0,0,1,1.31.09l3.32,1.77a4.13,4.13,0,0,1,2,3.17Z" style="fill:#37474f"></path><path d="M442.12,298.51a3.79,3.79,0,0,0-1.35-1.35l-3.32-1.77a1.28,1.28,0,0,0-1.31-.09L468.71,275a1.28,1.28,0,0,1,1.31.09l3.31,1.77a3.82,3.82,0,0,1,1.36,1.35Z" style="fill:#455a64"></path><path d="M470.42,280.91a13,13,0,0,0-6-3.23l-1.52.94a13,13,0,0,1,6,3.23Z" style="fill:#fafafa"></path><path d="M448.89,294.32a13.1,13.1,0,0,0-6-3.23l-1.52.94a13.1,13.1,0,0,1,6,3.23Z" style="fill:#fafafa"></path></g><path d="M442.8,226c6.63,1.62,7.21,3.25,13.45,15.73,5.56,11.12,7.8,14.64,9.61,19.83.84,2.38.94,6.69,1.17,13.28.3,8.81.38,12.56.56,20,0,1.28.85,3.67,1.16,6.46a55.21,55.21,0,0,1-.06,10.76c-.28,1.5-2.26,4.22-4.38,6-.86.73-5.14,1.55-6.94,1.55a3.34,3.34,0,0,1-2.69-1.31l2.62-1.64a2.05,2.05,0,0,0,.93-1.36,21.07,21.07,0,0,0,.44-4.46c-.1-2.36-1.54-1.87-1.86-.17a13.65,13.65,0,0,1-1.43,4.59c-.7,1-2.36,1.65-2.29,0s0-6.25.22-7.48c.8-3.91,3.28-9.46,3.28-12,0-5-4.52-27.86-4.52-27.86s-8.18-12.83-13.72-21.63C437.19,242.51,435.08,231.44,442.8,226Z" style="fill:#ffbda7"></path></g><path d="M412.51,221.85a32.18,32.18,0,0,0-13.31,13.7c-3.63,7.25-4.19,12.61-5,23.36a71.62,71.62,0,0,1-.65-18c.69-8.21,6.91-18,12.28-20C407.3,220.85,408.77,221.39,412.51,221.85Z" style="fill:#37474f"></path><path d="M443.52,226.19c-2.47,1.53-7.45,5.61-4.93,21.85,1.24,8,7.85,17.11,7.85,17.11l1,7.15s-13.56-5.55-16.64-28.21c-1.82-13.48,3.08-20.81,3.08-20.81A94.12,94.12,0,0,1,443.52,226.19Z" style="fill:#37474f"></path><path d="M457.27,204.21c-1.16-.6-2.58-.43-3.79-.91a5.17,5.17,0,0,1-2.87-3.56,18.08,18.08,0,0,1-.39-4.71,30.3,30.3,0,0,0-.51-6.09,16.51,16.51,0,0,0-6.81-10.38,13.21,13.21,0,0,0-12.15-1.35l-4.39,34.06a9,9,0,0,0,2.64,7.26,6.74,6.74,0,0,0,7.41,1.24,1.89,1.89,0,0,1,1.39-.35,1.79,1.79,0,0,1,.56.34,4.83,4.83,0,0,0,4.3.49,11.44,11.44,0,0,0,3.79-2.36,1.81,1.81,0,0,1,.69-.44,2.35,2.35,0,0,1,1.24.19,4.63,4.63,0,0,0,5.9-5.27,6.08,6.08,0,0,0,4.46-3.21A3.89,3.89,0,0,0,457.27,204.21Z" style="fill:#263238"></path><path d="M433,174.58a8.12,8.12,0,0,1,4.17,1.78c1.59,1.21,3,3,2.93,5a2.6,2.6,0,0,1-.67,1.85,3,3,0,0,1-2.15.72A9,9,0,0,1,432,182c-1.45-1-3.41-3-3.3-5S431.44,174.46,433,174.58Z" style="fill:#E64D61"></path><path d="M403.7,201.74c-.43-.94-.56-3.15-1.6-3.51a5.07,5.07,0,0,0-1.29-.16,5.23,5.23,0,0,1-1.82-9.91c-4.65-5.35,2.34-12.06,7.18-13.79,11.6-4.14,29.66.12,34.74,11.8,3,7.25,3.31,16-1.64,22.25-1.8,2.27-6.69,6.32-7.67,8.65-.19.45-10.22-1.87-14.4-4.06C412.27,210,406.89,206.69,403.7,201.74Z" style="fill:#263238"></path><path d="M401.2,198.11c-.22,2.28-.61,3.17-.83,6.86a14.23,14.23,0,0,0,2.38,9.35c2.06,2.86,6,4.57,9.89,4.92.3,0,.62,0,.93.06l-.11,4.39c-4.72,9.75,16.66,5.51,18.34.76L432,206s2.19,3,5.2,1.33a6.27,6.27,0,0,0,2.69-7.46,3.61,3.61,0,0,0-4.43-2.42c-2.48.66-2.94,3.72-4.63,3.24s-1-4-1.07-5.5c-.14-5.9-1.67-7.5-4.51-9.38-2.6-1.72-8-2.67-11.88.9-3-5.23-10-4.19-11.52,2.8C401,193.26,401.45,195.48,401.2,198.11Z" style="fill:#ffbda7"></path><path d="M418,197.94a1.91,1.91,0,0,0,1.7,2.11,1.94,1.94,0,0,0,2.05-1.8,1.88,1.88,0,1,0-3.75-.31Z" style="fill:#263238"></path><path d="M423.42,194.48l-3.48-1.57a1.91,1.91,0,1,1,3.48,1.57Z" style="fill:#263238"></path><path d="M407.61,191.85,404,193.16a1.94,1.94,0,1,1,3.65-1.31Z" style="fill:#263238"></path><path d="M419.3,206.74l-5.94,1.67a3,3,0,0,0,3.74,2.24A3.24,3.24,0,0,0,419.3,206.74Z" style="fill:#b16668"></path><path d="M419.22,208.6a2.21,2.21,0,0,0-1-.34,2.48,2.48,0,0,0-2.63,2.3v.09a2.9,2.9,0,0,0,1.52,0A3.13,3.13,0,0,0,419.22,208.6Z" style="fill:#f28f8f"></path><path d="M404.09,197.41a1.89,1.89,0,1,0,2.05-1.79A1.91,1.91,0,0,0,404.09,197.41Z" style="fill:#263238"></path><polygon points="413.73 194.19 412.64 204.87 407.58 203.59 413.73 194.19" style="fill:#f0997a"></polygon><path d="M413.58,219.28a27.2,27.2,0,0,0,11.54-2.56,12.48,12.48,0,0,0,4.48-4,10.81,10.81,0,0,1-2.71,4.68c-4.37,4-13.34,3.95-13.34,3.95Z" style="fill:#f0997a"></path></g></g></g><g id="freepik--character-4--inject-334"><g id="freepik--character--inject-334"><g id="freepik--bottom--inject-334"><path d="M295.39,323.09s4.87.63,7.75,4,9.37,13.54,10.62,14.65a8.64,8.64,0,0,1-2.66,2.91l-3.41-3.54c-.83-.64-1.2-1.35-1.1.79s.49,4.35.53,7.54c0,2.53.73,7.31-3.55,12.3-4,4.66-8.39,7-11.47,7.49-1.83.31-5.09,0-5-3.61,0-1.92.73-8.22.94-11.71S295.39,323.09,295.39,323.09Z" style="fill:#263238"></path><path d="M296.18,324.05c-.65-.75-2.7-3.93-3.69-5.4s-5.16-9.29-10.43-21.35c-6.79-15.52-17.62-26.79-21.05-32.6a122.82,122.82,0,0,1-9.74-19.8l-12.77,8.89-17.16.2c-.09,2.5,1,5.79,3.09,9.6h0a.47.47,0,0,0,0,.1c.19.35.39.7.59,1.05,4.05,7.24,10.85,15.94,18.41,24.7l.18.21.26.31c7.29,8.48,15.27,17.09,22.24,24.54v-.18c7.49,8,13.54,14.45,15.73,17.73,6.4,9.58,6,19.16,6.21,24.37.13,3.26,2.75,3.8,6.14.85,6.91-6,6.26-12.36,6.34-14.52C301,331.58,299.9,328.4,296.18,324.05Z" style="fill:#ffa8a7"></path><path d="M251.16,253.63l-29.82.36a8.71,8.71,0,0,0,0,1c0,.12,0,.26,0,.38s.05.45.09.69.08.35.12.52.08.41.14.62.12.42.18.63.11.38.18.57l.06.17c.12.08,7.7,4.83,21.71,6.73,0,0,1.12,21.76,5.08,30.44l0,0s0,0,0,0c1.42,1.6,2.86,3.2,4.29,4.79C253.49,287.49,251.16,253.63,251.16,253.63Z" style="fill:#f28f8f"></path><path d="M275,347a14.47,14.47,0,0,1,4.31,8.06c.57,4.7.4,17.6.83,19.33a8.46,8.46,0,0,1-3.85,1.1l-.9-5.16c-.36-1.05-.27-1.91-1.37.08s-2,4.21-3.72,7.12c-1.37,2.3-3.43,7-9.79,9.06-5.94,1.91-10.91,1.47-13.78.17-1.72-.77-4.28-2.93-2.21-6.14,1.1-1.69,5.16-7,7.26-10S275,347,275,347Z" style="fill:#263238"></path><path d="M258.69,347.36c-.08-12.32-13.7-68.3-11.34-94.86l33.77-1.42a140,140,0,0,0-2.75,23.49c-.33,7.21,2.55,23.61-.33,41.52-2.23,13.91-3,23.36-3,25.27s0,5.94.11,7c.73,6.07-.11,9.56-6.63,19.41-1.26,1.91-4.24,8-13.37,9.47-4.48.71-6.38-1.28-4.69-4.29C253.16,368.12,258.78,359.69,258.69,347.36Z" style="fill:#ffa8a7"></path><path d="M278.37,274.57c0,2.79.27,5.58.51,8.36s.45,5.58.61,8.38a129.33,129.33,0,0,1-.08,16.82c-.21,2.8-.59,5.58-1,8.35l-1.29,8.26q-.63,4.14-1.17,8.29c-.36,2.77-.72,5.54-.9,8.33a155.77,155.77,0,0,1,1.41-16.72c.65-5.56,1.77-11,2.11-16.59.25-2.77.34-5.56.39-8.34s0-5.58-.1-8.37-.23-5.58-.37-8.38A83.87,83.87,0,0,1,278.37,274.57Z" style="fill:#f28f8f"></path><path d="M247.33,267.24a101.52,101.52,0,0,1,0-14.74l33.77-1.42a103.72,103.72,0,0,0-1.81,11.19h0S266.53,269.07,247.33,267.24Z" style="fill:#f28f8f"></path><path d="M220.23,199.45a191,191,0,0,1,3-22.72c1.17-5.75,2.27-10.74,3-15.14,10,6.11,34.45,5.95,45.46-1.59,2,2.82,7.78,9.85,12.53,19.94,4.14,8.82,5.9,14.36,6.07,25.46.16,10.16-3.54,40.16-7.36,53-11.22,6.54-51.29,6.32-63-4.44C219.93,254,219.21,210,220.23,199.45Z" style="fill:#455a64"></path></g><g id="freepik--top--inject-334"><path d="M239,106.83c-7.34.73-11.14,1.89-17,6.58-2.75,2.2-22,19.79-22,19.79L189,154.08s1.86,2.15,9.74.51c6.42-1.34,28-13.63,28-13.63Z" style="fill:#ffa8a7"></path><path d="M215.6,93.86s.48-.34.47-1.5-.23-1.92-.27-3.21.18-3.46,1.31-3.86,2.11,2.18,2.47,4.33A9.8,9.8,0,0,0,222,95.27c1.8,2.22,3.48,5.16,2.41,8.11Z" style="fill:#f28f8f"></path><path d="M207.2,90.75c.33-2.2-.14-4.85-.17-6.56a18.56,18.56,0,0,1,.72-5c.45-1.77.66-4,1.22-4.34s1.68.22,1.83,1.55c0,0,.64-1.09,1.16-2.2s.79-2.44,1.7-2.8,1.59,1.08,1.41,2.18-.36,1.73-.36,1.73,1,.29.45,2.29a9.83,9.83,0,0,1-1,2.3,9.46,9.46,0,0,1-.59,3.5,18.34,18.34,0,0,1-.72,3.83A10.47,10.47,0,0,1,214.54,91c.23,1.72,0,2.16,2.3,4,1.53,1.2,4,2.47,5.58,4.21s2.68,3.64,1.41,6.36-2.28,4.7-3.43,7.53c-.88,2.14-1.65,4.93-5.1,15-2.68,7.81-2.86,8.77-4.29,11.66-2,4-4.23,9.25-10.33,12.73s-13.61,3.63-13.39-1.89c.26-6.62,1.47-11.94,3.89-15.81a68.3,68.3,0,0,1,6.67-8.92c2.75-3.37,4.78-6.75,8.08-11.46s5.36-9,5.16-10.45a32.47,32.47,0,0,0-2.68-7.38C207.23,93.91,206.82,94.07,207.2,90.75Z" style="fill:#ffa8a7"></path><path d="M223.83,105.51c-.85,2-1.8,4.06-2.61,6.12a64.38,64.38,0,0,0-2.16,6.27c-1.31,4.23-2.75,8.44-4.15,12.64-.74,2.09-1.42,4.2-2.21,6.29a32.56,32.56,0,0,1-1.37,3.07c-.49,1-1,2-1.53,3a27.05,27.05,0,0,1-3.82,5.5,19.47,19.47,0,0,1-5.3,4,23.14,23.14,0,0,0,8.52-9.86l1.44-3a30.77,30.77,0,0,0,1.31-3c.75-2.07,1.41-4.19,2.12-6.29l4.35-12.58a61.91,61.91,0,0,1,2.41-6.22C221.78,109.45,222.8,107.48,223.83,105.51Z" style="fill:#f28f8f"></path><path d="M210.8,76.42a10.71,10.71,0,0,1-.25,1.79c-.13.58-.28,1.17-.46,1.73l0,.08,0,.12a5.47,5.47,0,0,1,.2.93,6.42,6.42,0,0,1,.07,1,6.2,6.2,0,0,1-.3,1.91l0,.15.07.11a4,4,0,0,1,.36.65,5.56,5.56,0,0,1,.29.71,6.29,6.29,0,0,1,.22.74c.06.26.09.51.13.78a4.83,4.83,0,0,0,0-1.61,5.47,5.47,0,0,0-.19-.8,4.8,4.8,0,0,0-.33-.78l0,.26a5.28,5.28,0,0,0,.44-2.11A5.61,5.61,0,0,0,211,81a5.23,5.23,0,0,0-.29-1.06v.2a10.45,10.45,0,0,0,.27-1.85A6,6,0,0,0,210.8,76.42Z" style="fill:#f28f8f"></path><path d="M214.71,75.33a5.6,5.6,0,0,1-.52.89,8.18,8.18,0,0,1-.66.76l-.05,0v.1a8.15,8.15,0,0,1-.53,2.08A5.63,5.63,0,0,1,211.83,81l-.15.16.08.21a7.3,7.3,0,0,1,.29,1.14,9.85,9.85,0,0,1,.12,1.23,10.32,10.32,0,0,1,0,1.24c0,.42-.1.84-.15,1.26a7.93,7.93,0,0,0,.45-1.21,7.8,7.8,0,0,0,.23-1.28,7.28,7.28,0,0,0,0-1.32,5,5,0,0,0-.28-1.32l-.07.36a5,5,0,0,0,.73-.94,5.56,5.56,0,0,0,.5-1.08,6.12,6.12,0,0,0,.36-2.3l-.05.14a4.38,4.38,0,0,0,.55-.93A3.29,3.29,0,0,0,214.71,75.33Z" style="fill:#f28f8f"></path><path d="M212.69,89.63a5,5,0,0,0,.89,2.13,7.51,7.51,0,0,0,1.63,1.65c-.21-.33-.45-.63-.68-.93s-.45-.61-.66-.91A17.29,17.29,0,0,1,212.69,89.63Z" style="fill:#f28f8f"></path><path d="M220.5,97.34a9.56,9.56,0,0,1,1.06,4,7.68,7.68,0,0,1-.22,2,16.64,16.64,0,0,1-.67,2,5.59,5.59,0,0,0,1.18-1.83,5.46,5.46,0,0,0,.4-2.19A5.61,5.61,0,0,0,220.5,97.34Z" style="fill:#f28f8f"></path><path d="M244.21,106.47a29.2,29.2,0,0,0,2.95,6.44c10.6-1.54,15.78-2.61,19.31-6.06l9,1.13s6.18,11,4.66,20.53S271.66,160,271.66,160c-9.66,15-44.34,8.3-45.46,1.63,0,0-1.27-8.3-2.34-15.14,0,0-5-4.48-5.39-10.67-.45-6.5,2.09-11.13,8.45-18A80.81,80.81,0,0,1,239,106.85Z" style="fill:#E64D61"></path><path d="M244.21,106.47a29.2,29.2,0,0,0,2.95,6.44c10.6-1.54,15.78-2.61,19.31-6.06l9,1.13s6.18,11,4.66,20.53S271.66,160,271.66,160c-9.66,15-44.34,8.3-45.46,1.63,0,0-1.27-8.3-2.34-15.14,0,0-5-4.48-5.39-10.67-.45-6.5,2.09-11.13,8.45-18A80.81,80.81,0,0,1,239,106.85Z" style="fill:#fff;opacity:0.7000000000000001"></path><path d="M261.94,143.61a13.71,13.71,0,0,1-13.16,6.94,14.47,14.47,0,0,1-12.11-8s.15,10.08,12.06,10.36S261.94,143.61,261.94,143.61Z" style="fill:#E64D61;opacity:0.30000000000000004"></path><path d="M275.44,108c10.15,1.23,14.47,4.67,20.84,13.72,8.7,12.35,16.52,24.75,19.42,31.37l-19.47.32-15.56-16.78S266.62,128.36,275.44,108Z" style="fill:#ffa8a7"></path><g id="freepik--book--inject-334"><path d="M283,125.47l.15,1.35.64-.91A.82.82,0,0,0,283,125.47Z" style="fill:#E64D61"></path><path d="M283,125.47l.15,1.35.64-.91A.82.82,0,0,0,283,125.47Z" style="opacity:0.5"></path><path d="M256.25,149.06a2.73,2.73,0,0,1,.91-2.27L282,127.21,288.45,174l.16,1.09-24.53,19.73c-.61.48-1.2.24-1.31-.53Z" style="fill:#E64D61"></path><path d="M287.49,150.47l-1.56-10.93,5.62-4.42-1.19-8.23-4.46-1.78c-.59-.24-1.68.09-1.64.38a7.34,7.34,0,0,1-1,1.1,10.45,10.45,0,0,1-2.1,1.3l3.26,25Z" style="fill:#E64D61"></path><path d="M287.49,150.47l-1.56-10.93,5.62-4.42-1.19-8.23-4.46-1.78c-.59-.24-1.68.09-1.64.38a7.34,7.34,0,0,1-1,1.1,10.45,10.45,0,0,1-2.1,1.3l3.26,25Z" style="opacity:0.15"></path><path d="M288.35,130.35l-4.84-1.94.08-.06a2.48,2.48,0,0,0,.77-.95,1.16,1.16,0,0,0,.12-.78l5.71,2.28Z" style="fill:#37474f"></path><path d="M281.35,129a1.54,1.54,0,0,0,.95,0,2.74,2.74,0,0,0,.48-.17l.15-.06a1,1,0,0,0,.17-.1l.14-.08.27-.18,4.82,1.93-1.22.95h0Z" style="fill:#e0e0e0"></path><path d="M285.9,125.11c-.59-.24-1.68.09-1.64.38h0l.22,1.12,3.68,1.48,1.9-.28.37-.42-.07-.5Z" style="opacity:0.4"></path><path d="M262.87,150.4l-5.52-2.21a1.59,1.59,0,0,1,.48-.69l2.73-2.15L281.35,129l5.79,2.31Z" style="fill:#e0e0e0"></path><path d="M268.74,195.93l-4.17-1.67a1.8,1.8,0,0,1-1-1.28l-5.84-40.53-.5-3.44a1.61,1.61,0,0,1,.13-.82l4.9,2Z" style="fill:#f5f5f5"></path><path d="M295.63,176.86l-6.76-46.92-.51-.2c-.29-.11-.23-.55.25-.93a1.54,1.54,0,0,1,1.48-.44l.5.15,6.89,47.8,0,.19a.57.57,0,0,1-.26,0l-.23-.09A1.79,1.79,0,0,0,295.63,176.86Z" style="fill:#E64D61"></path><path d="M295.63,176.86l-6.76-46.92-.51-.2c-.29-.11-.23-.55.25-.93a1.54,1.54,0,0,1,1.48-.44l.5.15,6.89,47.8,0,.19a.57.57,0,0,1-.26,0l-.23-.09A1.79,1.79,0,0,0,295.63,176.86Z" style="opacity:0.1"></path><path d="M264,149.52l24.33-19.14c.3-.25.55-.49.53-.64l0,.2,6.76,46.92.08.55a1.55,1.55,0,0,1-.66,1.13l-24.15,19c-.61.47-1.2.24-1.31-.53l-6.52-45.22A2.73,2.73,0,0,1,264,149.52Z" style="fill:#E64D61"></path><path d="M297.5,176.51l0-.19-6.89-47.8a.31.31,0,0,0,.14,0,.81.81,0,0,1,.13-.11l.27-.21.34-.26a.38.38,0,0,0,.13-.46.07.07,0,0,0,0-.06.58.58,0,0,0-.11-.18,1.07,1.07,0,0,0-.18-.19l-.22-.18-.28-.18-.17-.09-.13-.07-.34-.15,1.09.44a2.49,2.49,0,0,1,1.29,1.83l6.52,45.22a2.46,2.46,0,0,1-.66,2.08l-.46.36h0a2,2,0,0,0-.2.15h0A.44.44,0,0,1,297.5,176.51Z" style="fill:#E64D61"></path><path d="M257.16,146.79l1.5-1.18,22.53-17.72a1.62,1.62,0,0,0,.95,0,3.49,3.49,0,0,0,1.29-.65,2.5,2.5,0,0,0,.78-1,1.27,1.27,0,0,0,.05-.81,4.19,4.19,0,0,1,2.08.34l.34-.88c-1.2-.48-2.57-.56-3-.19l-.44.34c-.24.19-.33.38-.19.44l.23.09c.26.11.09.5-.39.88a1.77,1.77,0,0,1-1.34.49l-.23-.09c-.14-.06-.58.16-1,.48l-21.79,17.14-2.36,1.86h0a2.49,2.49,0,0,0-.72,1l1,.4A2.61,2.61,0,0,1,257.16,146.79Z" style="fill:#E64D61"></path><path d="M257.16,146.79l1.5-1.18,22.53-17.72a1.62,1.62,0,0,0,.95,0,3.49,3.49,0,0,0,1.29-.65,2.5,2.5,0,0,0,.78-1,1.27,1.27,0,0,0,.05-.81,4.19,4.19,0,0,1,2.08.34l.34-.88c-1.2-.48-2.57-.56-3-.19l-.44.34c-.24.19-.33.38-.19.44l.23.09c.26.11.09.5-.39.88a1.77,1.77,0,0,1-1.34.49l-.23-.09c-.14-.06-.58.16-1,.48l-21.79,17.14-2.36,1.86h0a2.49,2.49,0,0,0-.72,1l1,.4A2.61,2.61,0,0,1,257.16,146.79Z" style="opacity:0.30000000000000004"></path><path d="M264,149.53h0l1.51-1.18,17.3-13.62,5.52-4.34c.4-.31.61-.61.5-.68h0l-.26-.1c-.28-.11-.12-.51.36-.89a1.27,1.27,0,0,1,1.17-.34l.27.11a.48.48,0,0,0,.39,0l.13-.11.27-.21.34-.26a.38.38,0,0,0,.13-.46.07.07,0,0,0,0-.06.75.75,0,0,0-.07-.12.13.13,0,0,0,0-.06,1.07,1.07,0,0,0-.18-.19l-.22-.18-.28-.18-.17-.09-.13-.07-.34-.15L286.68,125l-.34.88,3.46,1.38.27.12.21.11h0a2.72,2.72,0,0,0-2.17.66,2.44,2.44,0,0,0-.76.94,1.24,1.24,0,0,0,0,.89l-.08.06-.15.12-21.79,17.14L263,149.12h0l0,0a2.51,2.51,0,0,0-.7,1l1,.4A2.55,2.55,0,0,1,264,149.53Z" style="fill:#E64D61"></path><path d="M264,149.53h0l1.51-1.18,17.3-13.62,5.52-4.34c.4-.31.61-.61.5-.68h0l-.26-.1c-.28-.11-.12-.51.36-.89a1.27,1.27,0,0,1,1.17-.34l.27.11a.48.48,0,0,0,.39,0l.13-.11.27-.21.34-.26a.38.38,0,0,0,.13-.46.07.07,0,0,0,0-.06.75.75,0,0,0-.07-.12.13.13,0,0,0,0-.06,1.07,1.07,0,0,0-.18-.19l-.22-.18-.28-.18-.17-.09-.13-.07-.34-.15L286.68,125l-.34.88,3.46,1.38.27.12.21.11h0a2.72,2.72,0,0,0-2.17.66,2.44,2.44,0,0,0-.76.94,1.24,1.24,0,0,0,0,.89l-.08.06-.15.12-21.79,17.14L263,149.12h0l0,0a2.51,2.51,0,0,0-.7,1l1,.4A2.55,2.55,0,0,1,264,149.53Z" style="opacity:0.30000000000000004"></path><path d="M270.07,197.75l-1-.41a.86.86,0,0,1-.47-.71v0l-6.09-42.25-.42-3h0s0,0,0,0a2.46,2.46,0,0,1,.19-1.23l1,.4a2.48,2.48,0,0,0-.19,1.24l.28,1.89h0L269.59,197A.86.86,0,0,0,270.07,197.75Z" style="fill:#E64D61"></path><path d="M270.07,197.75l-1-.41a.86.86,0,0,1-.47-.71v0l-6.09-42.25-.42-3h0s0,0,0,0a2.46,2.46,0,0,1,.19-1.23l1,.4a2.48,2.48,0,0,0-.19,1.24l.28,1.89h0L269.59,197A.86.86,0,0,0,270.07,197.75Z" style="opacity:0.2"></path><path d="M263.25,195l-1-.41a.86.86,0,0,1-.47-.71v0l-6.09-42.25-.43-3h0a2.46,2.46,0,0,1,.19-1.23l1,.4a2.49,2.49,0,0,0-.18,1.24l.27,1.89h0l6.25,43.33A.86.86,0,0,0,263.25,195Z" style="fill:#E64D61"></path><path d="M263.25,195l-1-.41a.86.86,0,0,1-.47-.71v0l-6.09-42.25-.43-3h0a2.46,2.46,0,0,1,.19-1.23l1,.4a2.49,2.49,0,0,0-.18,1.24l.27,1.89h0l6.25,43.33A.86.86,0,0,0,263.25,195Z" style="opacity:0.2"></path></g><path d="M315.7,153.07c2,4.75,1,6.28-3.81,10.88S294,177.28,283,181.74c-7.21,2.9-11.13,3.68-14.34,3.39a12.43,12.43,0,0,1-11.29-10.85c-2.29-3.22-.55-4.26.88-5.1l.34,2.4s4.06,1.31,7.14.44-.83-3.61-2-5.61-1.45-3.29,0-4.84c1-.3,1.73,1,5.73,3.14,3,1.65,6.13,5.37,9.63,3.8,2.74-1.23,17.22-14,17.22-14l-1-6.9Z" style="fill:#ffa8a7"></path><path d="M265.4,98.4a6.06,6.06,0,0,1-3.65-1.34L253,91l-12.28-8.56c-1.62-1.14-3.25-2.27-4.86-3.41a11.58,11.58,0,0,0-1.8-1.28c-2.07-.89-4.1-.93-5.42-3.11a6,6,0,0,1-.43-5.15,6.27,6.27,0,0,0-2.65.52,2.28,2.28,0,0,0-1.29,2.26,5.21,5.21,0,0,1-.28-4.51,4.89,4.89,0,0,1,3.36-2.86,9.09,9.09,0,0,1-2.75-.26,3.22,3.22,0,0,1-2.09-1.75,2.13,2.13,0,0,0,2.45.36A2.28,2.28,0,0,0,226.06,61c-.17-1.23-1.26-2.08-1.75-3.21a4.34,4.34,0,0,1,.56-4,8.16,8.16,0,0,1,3.25-2.56,16.14,16.14,0,0,1,5.26-1.52c1.73-.18,3.73-.2,4.82-1.59a17.49,17.49,0,0,0,1.31-2.88,5.17,5.17,0,0,1,3.78-2.56,9.51,9.51,0,0,1,4.62.56,13.59,13.59,0,0,0,4.39,1.22c2.1,0,4-1.35,6.12-1.32,4,.07,6.4,4,7.06,7.4a11.14,11.14,0,0,1,6.23.8,7.76,7.76,0,0,1,4.18,4.56,14.22,14.22,0,0,0,1.07,3.5c1.09,1.72,3.42,2.14,4.92,3.52a4.94,4.94,0,0,1,1.51,4.24c-.22,1.53-2.06,2.24-2.86,3.5a3,3,0,0,0-.09,3.16,2.25,2.25,0,0,0,2.84.87,2.87,2.87,0,0,1-4.24,1.1,6.18,6.18,0,0,1,2.37,4A5.42,5.42,0,0,1,280.08,84c-.73.74-1.79,1.24-2.14,2.21a4.64,4.64,0,0,0-.07,1.86,5.11,5.11,0,0,1-1.46,4.3,8.06,8.06,0,0,1-3.27,1.28c-1.3.34-3,1-3.14,2.53A3,3,0,0,0,272,99.36a3,3,0,0,1-2.81-.17,4.4,4.4,0,0,1-1.71-2.11,1.35,1.35,0,0,1-.74,1A2.88,2.88,0,0,1,265.4,98.4Z" style="fill:#37474f"></path><path d="M237.11,59.6c-2.31.88-7.46,9.2-7.1,24.45.29,11.89,4.59,14.66,6.85,15.49a23,23,0,0,0,8.67.87L245,105c3,5,20.28,1.54,20.28,1.54l-.3-16.25s2.53,4.33,7.66.25A9.45,9.45,0,0,0,275,79.28a6.15,6.15,0,0,0-5.38-3.21c-2.46-.08-4.88,1.37-5.35,3.68-.59,2.53-3.09,3-4.28.94a13.16,13.16,0,0,1-1.2-8.2C250.1,72.39,239,67.5,237.11,59.6Z" style="fill:#ffa8a7"></path><path d="M243.32,90.83a1.66,1.66,0,0,0,3.3-.4c-.11-.91-.82-.6-1.74-.49S243.21,89.92,243.32,90.83Z" style="fill:#b16668"></path><path d="M245.53,100.41c8.59-1.07,15.41-5,16.6-8.63a9.24,9.24,0,0,1-2.41,6.08c-3.5,3.53-14.63,6-14.63,6Z" style="fill:#f28f8f"></path><path d="M246.89,78a2,2,0,1,0,3.57,1.59,1.64,1.64,0,0,0-1-2.32A1.88,1.88,0,0,0,246.89,78Z" style="fill:#263238"></path><path d="M233.41,77.45a2,2,0,1,0,3.9-.08c0-1.12-.92-1.61-2-1.59S233.39,76.33,233.41,77.45Z" style="fill:#263238"></path><path d="M233.09,70.5l4.39-1a2.15,2.15,0,0,0-2.59-1.76A2.36,2.36,0,0,0,233.09,70.5Z" style="fill:#263238"></path><path d="M253.37,73.19l-4.05-1.94a2.14,2.14,0,0,1,2.92-1.11A2.36,2.36,0,0,1,253.37,73.19Z" style="fill:#263238"></path><path d="M265.12,99.63c0,1.49-.5,1.94-.5,1.94s-1.7,2.12-6.46,3.22c-7.16,1.65-12.17-.17-12.93-2l.14-1.09a2.13,2.13,0,0,0-1.8.88,16.2,16.2,0,0,1-2.76,3.67c-1.22,1.08,2,7.77,10,7.82,14.17.08,17.76-6.8,19.39-6.74l1.08.14c0-1.32-1.93-1.07-3-3.09C266.89,101.62,267.53,99.73,265.12,99.63Z" style="fill:#E64D61"></path><path d="M265.12,99.63c0,1.49-.5,1.94-.5,1.94s-1.7,2.12-6.46,3.22c-7.16,1.65-12.17-.17-12.93-2l.14-1.09a2.13,2.13,0,0,0-1.8.88,16.2,16.2,0,0,1-2.76,3.67c-1.22,1.08,2,7.77,10,7.82,14.17.08,17.76-6.8,19.39-6.74l1.08.14c0-1.32-1.93-1.07-3-3.09C266.89,101.62,267.53,99.73,265.12,99.63Z" style="fill:#fff;opacity:0.5"></path><path d="M248.29,105.83a5.27,5.27,0,0,0-.35,1.51,7.45,7.45,0,0,1-.25,2c-.2.5-.48.95-.64,1.47a5.77,5.77,0,0,0-.26,1.53,7.38,7.38,0,0,0,0,1.13,3.58,3.58,0,0,0,.35.09,1.28,1.28,0,0,1-.07-.28,5.63,5.63,0,0,1,0-1.36,5.29,5.29,0,0,1,.44-1.6,7.83,7.83,0,0,0,.47-1c.27-.87.12-1.83.33-2.71a3.32,3.32,0,0,1,.77-1.49l-.3-.08A3.55,3.55,0,0,0,248.29,105.83Zm-1.49-1.61-.17-.09a2.13,2.13,0,0,0-.62.71,6,6,0,0,0-.43,1.38,3.22,3.22,0,0,1-.93,1.54,4.77,4.77,0,0,0-1.4,2.23,4.17,4.17,0,0,0-.11,1.32l.36.3a4,4,0,0,1,.26-2.15,11.74,11.74,0,0,1,1.54-1.9,8.82,8.82,0,0,0,.82-2.29,2.33,2.33,0,0,1,.77-1Zm5.74,3.17a4.77,4.77,0,0,0-.52-2l-.36,0a9.53,9.53,0,0,1,.52,2.32c0,.83-.2,1.66-.11,2.49s.53,1.63.61,2.48a3.66,3.66,0,0,1-.15,1.34h.31a5.77,5.77,0,0,0,.13-.78,8.31,8.31,0,0,0-.44-2.61A18.46,18.46,0,0,1,252.54,107.39Zm-7.86-3.61a2,2,0,0,1,.67-.79,2.25,2.25,0,0,1-.12-.21l0-.25a2.53,2.53,0,0,0-.35.28c-.71.72-.61,1.84-1.4,2.51a11.34,11.34,0,0,0-2,1.64,3.94,3.94,0,0,0-.63,1.32l.1.24h0l.09.17a3.59,3.59,0,0,1,.76-1.63,13.85,13.85,0,0,1,1.8-1.35A4.35,4.35,0,0,0,244.68,103.78Zm15.16,6.7c-.2-.46-.51-.86-.7-1.32-.43-1-.17-2.19-.5-3.24a2.57,2.57,0,0,0-.66-1.09l-.65.13a2.46,2.46,0,0,1,1.07,1.68,18.76,18.76,0,0,0,.36,2.59,16.1,16.1,0,0,1,1.07,2.4,3.55,3.55,0,0,1,0,1.34l.35-.1a5.17,5.17,0,0,0,0-1.1A4.19,4.19,0,0,0,259.84,110.48Zm7.2-2.86a7.65,7.65,0,0,1-.47-1.78,8.69,8.69,0,0,0-.92-3.24,3.29,3.29,0,0,0-1.06-1l-.26.27a3.07,3.07,0,0,1,1.28,1.42,11.18,11.18,0,0,1,.68,2.92,6.58,6.58,0,0,0,.93,2.57l.26.37.34-.27A7.37,7.37,0,0,1,267,107.62Zm-11.23-.94a3.37,3.37,0,0,0-.61-1.39h-.11l-.39,0a2.36,2.36,0,0,1,.65.86,4.56,4.56,0,0,1,.26,1.37,7,7,0,0,0,.36,2.57,10.48,10.48,0,0,1,1.18,2.65,3.32,3.32,0,0,1,0,.77l.29,0a4.55,4.55,0,0,0,0-.64,7.66,7.66,0,0,0-1.12-2.73C255.77,109,256,107.86,255.81,106.68Zm6.8-3.57-.37.2c1.05,1,1,3.13,1.61,4.38.45.92,1.29,1.58,1.68,2.53,0,.08,0,.16.07.24l.32-.21c-.37-1.08-1.24-1.79-1.77-2.79S263.54,104.2,262.61,103.11Zm-.6,5.43a3.66,3.66,0,0,1-.59-1.78,7,7,0,0,0-.22-1.65,2.21,2.21,0,0,0-.69-1l-.69.24a2.15,2.15,0,0,1,1.17,1.89,5.52,5.52,0,0,0,.6,2.43,8.28,8.28,0,0,1,1.24,2.35,3.67,3.67,0,0,1,.1.86l.35-.15a3.93,3.93,0,0,0,0-.49A6.47,6.47,0,0,0,262,108.54Z" style="fill:#E64D61"></path><path d="M227,72.33a3.58,3.58,0,0,0,.61,1.9,1.44,1.44,0,0,1,.25.68,33.27,33.27,0,0,0,.61,5A5.54,5.54,0,0,0,233.3,84a8.09,8.09,0,0,0,1.8.08h.14a5.14,5.14,0,0,0,1.51-.39l.09,0,.13-.06.17-.09.15-.09.18-.11.16-.11.31-.25a6.44,6.44,0,0,0,1.36-1.69c.94-1.6,1-4,2.27-4.11h.15l.17,0c1.68.24,1.21,2.79,2,4.76a6.52,6.52,0,0,0,5.77,4.48l.47.05.38,0a6.68,6.68,0,0,0,.9,0l.28,0,.27,0,.18,0a5.07,5.07,0,0,0,1-.34l.35-.18a4.66,4.66,0,0,0,.63-.43,5.93,5.93,0,0,0,1.3-1.57c.7-1.21,1.1-3.51,1.52-4.68a2.07,2.07,0,0,1,.35-.66,3.18,3.18,0,0,0,1-1.63,1.53,1.53,0,0,0-.85-1.65c-.28-.08-.58-.16-.89-.23-2.85-.72-6.6-1.35-8.92-1-2.91.42-4,1.19-5.56,1s-2.33-1.28-4.91-2.49c-2.06-1-5.59-1.39-8.3-1.48l-.85,0C227.56,70.91,227,71.55,227,72.33Zm18.4,4.12a2.3,2.3,0,0,1,.88-.55.69.69,0,0,1,.15-.07l.08,0,.42-.13.39-.11a11,11,0,0,1,1.24-.22l.5,0a10.61,10.61,0,0,1,1.26,0h.29c2.75.13,4.38,1,4.93,1.62s0,3.12-.38,4.36l0,.09,0,.1a5,5,0,0,1-.17.5l-.12.31h0q-.11.24-.24.51h0l-.09.17-.06.1-.07.12-.09.14-.11.16a1.83,1.83,0,0,1-.13.16,2.09,2.09,0,0,1-.14.17,4.22,4.22,0,0,1-4,1.3,5.39,5.39,0,0,1-3.85-2h0a5.84,5.84,0,0,1-1-2.74C244.77,78.84,244.76,77.16,245.37,76.45Zm-15.86-3.36a2.25,2.25,0,0,1,.71-.33l.05,0,.31-.08.18,0,.16,0,.1,0h0l.15,0c.2,0,.41,0,.64,0h.71l.43,0,.16,0,.15,0a11.33,11.33,0,0,1,1.24.28c1.91.52,3.84,1.68,4.28,2.54s.15,2.5-.26,3.88a7.13,7.13,0,0,1-.34.92.43.43,0,0,0,0,.07l0,.09,0,.06-.06.11-.13.22a2.14,2.14,0,0,1-.13.19l0,.06a1.13,1.13,0,0,1-.1.13l-.08.1,0,0a4.21,4.21,0,0,1-4.24,1.33,4.88,4.88,0,0,1-2-.75c-1.82-1.22-2.08-3.44-2.2-4.47C229,76.14,228.87,73.57,229.51,73.09Z" style="fill:#263238"></path><path d="M243.48,80.42l-1,6.66L236.13,85c.26-.48.51-1,.76-1.39a27.1,27.1,0,0,1,3.55-5.33,7.67,7.67,0,0,1,1.29-1.17l.16,0C243.17,77.32,243.21,78.84,243.48,80.42Z" style="fill:#f28f8f"></path><path d="M257.57,75.44l8.09,2a4.26,4.26,0,0,0-1.21,1.76l-7.18-1.69Z" style="fill:#263238"></path></g></g></g><g id="freepik--character-1--inject-334"><g id="freepik--character--inject-334"><g id="freepik--bottom--inject-334"><path d="M98.61,389,96,375.24l18.38-2.6-.19,18.5s1,5.88-6.37,6.31S98.33,394.66,98.61,389Z" style="fill:#b16668"></path><path d="M136.17,413.79c.26,0,.52,2.86-.92,4-1.67,1.32-6.49,3.39-12.7,2.31s-7.89-2.41-10.3-4.61-4.6-4.49-7.4-5.23c-2.59-.7-7-2.38-7.84-3.23s-.8-4.15-.8-4.15Z" style="fill:#263238"></path><path d="M98.51,389.18a1.11,1.11,0,0,0-1.09.82c-.24,1-.57,3.86-1.06,5.47-.67,2.24-.72,6.56,0,8.42s6.32,3.64,9,4.8a26.16,26.16,0,0,1,7.43,5.17,19.22,19.22,0,0,0,11.35,4.73c4.81.17,10.3-1.15,11.64-3.33,1.65-2.69,2-5.33-5-8.95-1.32-.68-5.38-3.31-7-4.4a30.06,30.06,0,0,1-4.8-4,18.51,18.51,0,0,1-2.71-3.34,9.38,9.38,0,0,1-.79-2.21A24.18,24.18,0,0,1,115,390a1.61,1.61,0,0,0-.58-1.2,1.52,1.52,0,0,0-.92-.12,24.8,24.8,0,0,0-4.84.86,2.91,2.91,0,0,0-1.66,1,2.53,2.53,0,0,0-.37,1.32,10.55,10.55,0,0,1-.1,1.38.94.94,0,0,1-.21.45c-.25.23-.63,0-.83-.18-.72-.7-.34-.41-.94-1.22-.32-.43-4.24-.28-4.65-.63a11.58,11.58,0,0,1-1.19-.85C98.27,390.3,98.5,389.76,98.51,389.18Z" style="fill:#37474f"></path><path d="M112.79,413.86a35.2,35.2,0,0,0-3.2-2.68h0s7.47,3.34,11,1.17c2.25-1.4,1.29-3.25,1.27-3.84s5.46-2.82,7.6-3h0c.57.35,1.06.63,1.36.79,7,3.62,6.65,6.26,5,8.95-1.33,2.18-5.33,3.75-11.55,3.48A19.81,19.81,0,0,1,112.79,413.86Z" style="fill:#455a64"></path><path d="M121.3,406.79c4.36,2,2.43,2.71,1.18,2.84s-7.35-3.76-11.75-7.56c-4.58-4-10.09-6.47-11.8-7.93-.63-.54-1.31-1.21-1.92-1.82.16-1,.3-1.86.41-2.32.19-.83,1.19-1,1.19-1l.13,1.61a3.55,3.55,0,0,0,1.21.89c1,.39,4.25.33,4.57.76.6.81.22.52.94,1.22C109.12,398.54,116.94,404.82,121.3,406.79Z" style="fill:#263238"></path><path d="M122.2,409a.43.43,0,0,1-.28-.11.44.44,0,0,1,0-.62,10.57,10.57,0,0,1,8.27-2.85.44.44,0,0,1-.14.87,9.77,9.77,0,0,0-7.48,2.56A.4.4,0,0,1,122.2,409Z" style="fill:#f0f0f0"></path><path d="M118.41,406.61a.49.49,0,0,1-.27-.11.43.43,0,0,1,0-.62,10.58,10.58,0,0,1,8.2-3,.44.44,0,0,1-.11.87,9.85,9.85,0,0,0-7.42,2.74A.44.44,0,0,1,118.41,406.61Z" style="fill:#f0f0f0"></path><path d="M114.94,404a.4.4,0,0,1-.27-.11.44.44,0,0,1,0-.62,10.57,10.57,0,0,1,8.27-2.85.45.45,0,0,1,.37.5.43.43,0,0,1-.5.37,9.78,9.78,0,0,0-7.48,2.57A.43.43,0,0,1,114.94,404Z" style="fill:#f0f0f0"></path><path d="M111.88,401.58a.42.42,0,0,1-.28-.1.43.43,0,0,1-.06-.62,10.59,10.59,0,0,1,8.13-3.2.43.43,0,0,1,.39.49.42.42,0,0,1-.48.38,9.8,9.8,0,0,0-7.36,2.89A.47.47,0,0,1,111.88,401.58Z" style="fill:#f0f0f0"></path><path d="M108.59,398.78a.49.49,0,0,1-.28-.09.44.44,0,0,1-.06-.62c1.73-2.17,5.63-3.58,8.9-3.21a.45.45,0,0,1,.39.49.45.45,0,0,1-.49.39c-2.94-.34-6.58,1-8.12,2.88A.41.41,0,0,1,108.59,398.78Z" style="fill:#f0f0f0"></path><path d="M56.66,390.27l.87-11.42,16.16,1.59-3.55,11.72s.23,5.48-1.87,6.34-11.44,0-12.42-1.29S56.66,390.27,56.66,390.27Z" style="fill:#b16668"></path><path d="M68.39,420.26c-.43,4.29-1.25,7.13-3,9.62s-4.83,3.24-7.91,2.46-7-2.81-7.74-6.53-.48-6.25.37-10.22Z" style="fill:#263238"></path><path d="M56.66,390.27c-1.1.31-2.33,5.88-3.29,11.65-1,6.17-2.26,8-3.15,13.08-1,5.79-.67,7.73,1.37,11.27s9.59,7.09,13.57,2.12c3.24-4,3.4-7.93,3.33-13.72a115.18,115.18,0,0,1,.56-13.79c.42-4.33,2.18-8.22,1.09-8.72-.11.64-1.46,5.31-2.31,4.77-.38-.08-.42-.69-.29-1.81a1.87,1.87,0,0,0-.3-1.41,2.43,2.43,0,0,0-1.4-.61c-1.25-.26-3-.65-4.25-.77-.75-.08-.33-.08-1.08-.13a7.13,7.13,0,0,0-2.81,0c-.41.19-.46.55-.57,1s-.24,1-.39,1.37c-.06.16-.31.49-.49.47s-.35-.77-.31-1.1,0-.85.05-1.24S56.5,391.29,56.66,390.27Z" style="fill:#37474f"></path><path d="M50.55,413c-.15.84-1,6.05.61,7.07S54,416.86,54,416.86s4.13-1.11,10,1.41c-.34.9.47,3.87,2.13,3.27s2.39-6.29,2.4-6.37c0,5.55-.2,9.3-3.34,13.22-4,5-11.53,1.42-13.57-2.12s-2.4-5.48-1.37-11.27C50.32,414.42,50.42,413.55,50.55,413Z" style="fill:#455a64"></path><path d="M54.43,417.24c-.1,2.09-2.08,1.34-2.27-1.61-.3-4.42,1-8.62,1.21-13.71,1-5.77,2-11.57,3.29-11.65-.08,1-.48,3.28-.48,3.28-.06.43-.28,1.4-.28,1.4-.56,4.32-2,9.35-1.94,13.8C54,412.68,54.54,415.14,54.43,417.24Z" style="fill:#263238"></path><path d="M63.28,418.2c.5-2.05,1.24-2.62,1.83-6.52s2.56-10.69,3.6-14.9c.45-1.63,1.42-4.57,1.43-4.62.79.38.72,2.58,0,5.18s-1.2,4.2-1.7,6.7c-1.29,5-1.65,10.27-2.48,13.14S62.79,420.26,63.28,418.2Z" style="fill:#263238"></path><path d="M63.79,418.31a.34.34,0,0,1-.17-.05,15.94,15.94,0,0,0-9.84-1.1.47.47,0,0,1-.57-.32.45.45,0,0,1,.36-.54,16.69,16.69,0,0,1,10.52,1.18.42.42,0,0,1,.18.6A.5.5,0,0,1,63.79,418.31Z" style="fill:#f0f0f0"></path><path d="M65.24,414.17l-.16,0a21,21,0,0,0-11.47-1.39.48.48,0,0,1-.56-.35.46.46,0,0,1,.38-.53,21.85,21.85,0,0,1,12.09,1.47.43.43,0,0,1,.2.6A.49.49,0,0,1,65.24,414.17Z" style="fill:#f0f0f0"></path><path d="M53.08,409.32a.44.44,0,0,1-.39-.3.44.44,0,0,1,.31-.56c5.82-1.74,13.28.89,13.51,1a.42.42,0,0,1,.18.6.5.5,0,0,1-.65.18c-.05,0-7.35-2.57-12.76-.94A.46.46,0,0,1,53.08,409.32Z" style="fill:#f0f0f0"></path><path d="M54.15,405.58a.46.46,0,0,1-.39-.3.45.45,0,0,1,.31-.56c6.4-2,12.77,1.31,13,1.44a.42.42,0,0,1,.14.61.5.5,0,0,1-.66.14s-6.22-3.23-12.17-1.35A.5.5,0,0,1,54.15,405.58Z" style="fill:#f0f0f0"></path><path d="M54.71,401a.48.48,0,0,1-.39-.29.45.45,0,0,1,.3-.57c6-2,12.83,1.43,13.07,1.57a.42.42,0,0,1,.15.61.49.49,0,0,1-.65.15c-.06,0-6.7-3.34-12.27-1.49A.5.5,0,0,1,54.71,401Z" style="fill:#ebebeb"></path><path d="M118.22,325.84c0-9.67-2-39-3-49.75H62.34L59,332.42c-.35-.13-2.8,10.95-3.19,19.05-.72,14.85,0,34.24,0,34.24a14,14,0,0,0,7.95,4.12,14.94,14.94,0,0,0,9-1.21s6.36-23.78,7.12-27.22c1.74-7.83,3.4-13.79,5.22-21.74,2.52-11.05,4.76-20,4.47-19.91L92.64,339c-1,5.4-1.69,15,.52,27.25,1.39,7.67,3.72,18,3.72,18s2.89,2.11,8.67,1.43c7.12-.84,9.37-3.11,9.37-3.11s2.18-31.8,2.75-42S118.22,325.84,118.22,325.84Z" style="fill:#455a64"></path><path d="M89.57,319.75a170.22,170.22,0,0,0,3.06-17.54s7.64.07,11.57-5.16c-2.23,5.59-9.44,7.81-9.44,7.81l-2.9,16.28L92.64,339Z" style="opacity:0.2"></path></g><g id="freepik--top--inject-334"><g id="freepik--arm--inject-334"><path d="M139.25,194.21c-2.16-10.81-3.89-19-4.31-22.51a18.56,18.56,0,0,1,.06-4.53,21.15,21.15,0,0,0-.07-5.89c-.16-1.17-.31-2.33-.46-3.5-.53-3.15-1.16-10.64-5.37-10.62a3,3,0,0,0-2.46-2.53,5.53,5.53,0,0,1-1.69-.26c-1.09-1-1.59-1.65-3.09-1-.31-.87-1-2-2-1.79-1.54.61-1.35,2.91-1.31,4.3.54,3.56,2.91,8.58,3,11.76-.2,1.92-2.22-2.71-2.51-3.07a3.22,3.22,0,0,0-2.68-1.39c-2,0-.72,2.33-.65,3.49a18.44,18.44,0,0,0,2.76,8c.59.8,1.14,1.47,1.62,2.06a9.62,9.62,0,0,1,2.21,6l.39,26a97.46,97.46,0,0,1-7.16,8.92,34.91,34.91,0,0,1-11.55,9.09c-6.42,13.15,10.21,33,11,25.36.69-6.92,5.47-12.18,9.64-17.95,7.39-10.24,9.59-13.25,11.72-16.59C140.05,201.59,140.7,201.48,139.25,194.21Z" style="fill:#b16668"></path><path d="M103.83,215.88a9,9,0,0,0,4.79-2.53c2.62-2.25,10.7-10.62,10.7-10.62s4.26-.26,7.57,5.55,2.7,9.37,2.7,9.37a162.71,162.71,0,0,0-10,14.14,34.1,34.1,0,0,0-3.91,11.86C108,247.4,98.46,229,103.83,215.88Z" style="fill:#E64D61"></path><path d="M129.74,164.39a9.18,9.18,0,0,0-1.17-2.29,6.68,6.68,0,0,0-4.23-2.94c-.2,0-.14.2,0,.28.63.54,1.34.95,2,1.5a10.07,10.07,0,0,1,1.62,1.83,9,9,0,0,1,1,2,10.88,10.88,0,0,1,.3,1.12,2.5,2.5,0,0,0,.31,1.08c.11.15.42.23.5,0A4.24,4.24,0,0,0,129.74,164.39Z" style="fill:#9a4a4d"></path></g><g id="freepik--backpack--inject-334"><path d="M41.6,237.2c.5,1.52,3,.67,7.3.06s4.4-21.15,4.4-21.15-4,1.38-6.42,6.94S41.6,237.2,41.6,237.2Z" style="fill:#263238"></path><path d="M88.06,210.4c3.69.78,10.85,6.88,11.49,10,.66,3.31-5.63,52.3-9.64,55.38-5,3.87-35.85,9.78-44.27,7.57a14.78,14.78,0,0,1-10.48-9.11c-1-3.47,12.58-52,15.6-55C55.67,214.35,83.36,209.4,88.06,210.4Z" style="fill:#37474f"></path><path d="M43.27,239.85c.51-1.72,1-3.43,1.53-5.07.21-.66.41-1.31.62-1.94.4-1.27.8-2.5,1.19-3.66l.58-1.69c.28-.81.56-1.59.83-2.31s.52-1.4.77-2l.24-.6a12.71,12.71,0,0,1,1.73-3.33,6.1,6.1,0,0,1,.46-.41l.17-.13.36-.27.22-.15.38-.24.25-.15.6-.32.41-.21.28-.13.48-.22.24-.1.55-.23c3,2.13,3.54,1.38,3.62,1.47s3.06,3,1.72,8.06l-6.63,28-.45,2c-.68,2.74-6.49,29.46-11.58,25.47a1.36,1.36,0,0,0-.3-.13c-4.81-3-5.88-5.58-6.38-7.25a4.18,4.18,0,0,1,0-1.47c0-.28.06-.59.11-.93,0-.17,0-.35.07-.53.09-.55.2-1.16.32-1.83,0-.22.09-.45.14-.69.7-3.51,1.89-8.32,3.28-13.44.28-1,.56-2.06.86-3.1.19-.7.39-1.4.59-2.09l.3-1C41,248.46,43.06,240.55,43.27,239.85Z" style="fill:#455a64"></path><path d="M49.54,221.39a4.43,4.43,0,0,1,1.09-2.45c4.9-4.88,32.73-9.54,37.43-8.54,3.69.78,10.85,6.88,11.49,10a23.83,23.83,0,0,1,0,3.93c-8.25,2.21-38.55,7.52-40.34,6.36-2.19-1.42-9.51-8.95-9.64-9.33Z" style="fill:#263238"></path><path d="M38,255c.25-.06,4-1.72,4.45-1.82.73-.18,6.49,5.74,7.11,7,.44.91-3.28,12.47-3.85,13.23-.21.27-4.24,1.55-4.45,1.82-.57.75-6.83-5.4-7.08-7.14S36.91,255.23,38,255Z" style="fill:#37474f"></path><path d="M45.11,262c-.37,2.47-3.28,12.47-3.86,13.23s-6.83-5.4-7.08-7.14S36.91,255.23,38,255C38.73,254.79,44.48,260.71,45.11,262Z" style="fill:#263238"></path><path d="M42.43,253.15c-.41.1-4.19,1.76-4.43,1.82.73-.18,6.48,5.74,7.11,7l4.44-1.82C48.93,258.88,43.17,253,42.43,253.15Z" style="opacity:0.4"></path><path d="M49.55,260.19c-.6-.63-2.5.4-3.6,1s-1.41,1.77-4,3.18a3.39,3.39,0,0,1-5-2.8c-.09-2.18-.07-6.58,1.43-7.81a4,4,0,0,1,5.15-.29C45,254.74,49.78,258.3,49.55,260.19Z" style="fill:#37474f"></path><path d="M40.31,260.29a1.83,1.83,0,0,1,.44,1.83.73.73,0,0,1-1.23.37,1.77,1.77,0,0,1-.44-1.83A.72.72,0,0,1,40.31,260.29Z" style="fill:#E64D61"></path><path d="M59.44,230.83s-.8-4.59-5.26-10c-3-3.57-5.62.35-7.16,2.81-1.86,3-4.44,12.53-4.77,13.57s-1.56.54.23-6.19,4.28-13,11.55-15.51c9.78-3.4,31.39-5.52,37.28-2.71s10.18,5.18,8.21,11.56C99.52,224.37,79.6,234.21,59.44,230.83Z" style="fill:#455a64"></path></g><path d="M62.33,257.35c-.29-5.33-1.87-14.93-2.14-17.21-.83-6.8,1.45-18,4.91-20.34a103.67,103.67,0,0,1,13.7-2.57A86,86,0,0,1,96,216.4c7.61.29,9.69-.65,9.69-.65,3,2.72,9.53,12.8,10.43,25.73.69,9.86,0,33.34,0,45.72-14.06,12.57-40.2,10.38-55.16.08C61,287.28,63,268.44,62.33,257.35Z" style="fill:#f5f5f5"></path><g id="freepik--arm--inject-334"><path d="M49.49,301.06l-4.33,1.25a2,2,0,0,1,.63,1.37,13.65,13.65,0,0,0,1.1,4.69c.62,1,2.23,1.81,2.28.16S49.65,302.29,49.49,301.06Z" style="fill:#b16668"></path><g id="freepik--Crayon--inject-334"><path d="M53.36,314.91a1.65,1.65,0,0,0,1.65-.16,5.16,5.16,0,0,0,2.33-4,1.63,1.63,0,0,0-.69-1.51L31.73,294.82a1.63,1.63,0,0,0-1.64.16,5.15,5.15,0,0,0-2.33,4,1.63,1.63,0,0,0,.68,1.51Z" style="fill:#E64D61"></path><path d="M53.36,314.91a1.65,1.65,0,0,0,1.65-.16,5.16,5.16,0,0,0,2.33-4,1.63,1.63,0,0,0-.69-1.51L31.73,294.82a1.63,1.63,0,0,0-1.64.16,5.15,5.15,0,0,0-2.33,4,1.63,1.63,0,0,0,.68,1.51Z" style="fill:#fff;opacity:0.30000000000000004"></path><path d="M51.94,314.09l-22-12.72a1.6,1.6,0,0,1-.68-1.5,5.15,5.15,0,0,1,2.32-4,1.63,1.63,0,0,1,1.65-.16l22,12.71a1.62,1.62,0,0,0-1.64.17,5.12,5.12,0,0,0-2.33,4A1.62,1.62,0,0,0,51.94,314.09Z" style="fill:#455a64"></path><path d="M50.46,313.23l-1.33-.77a1.63,1.63,0,0,1-.69-1.5,5.16,5.16,0,0,1,2.33-4,1.63,1.63,0,0,1,1.65-.16l1.33.76a1.63,1.63,0,0,0-1.65.17,5.15,5.15,0,0,0-2.33,4A1.63,1.63,0,0,0,50.46,313.23Z" style="fill:#E64D61"></path><path d="M32.5,302.86l-1.33-.76a1.65,1.65,0,0,1-.68-1.51,5.15,5.15,0,0,1,2.32-4,1.65,1.65,0,0,1,1.65-.16l1.33.77a1.63,1.63,0,0,0-1.65.16,5.15,5.15,0,0,0-2.32,4A1.6,1.6,0,0,0,32.5,302.86Z" style="fill:#E64D61"></path><path d="M57.34,310.72A1.42,1.42,0,0,0,55,309.37a5.15,5.15,0,0,0-2.33,4,1.63,1.63,0,0,0,.68,1.51,1.65,1.65,0,0,0,1.65-.16A5.16,5.16,0,0,0,57.34,310.72Z" style="fill:#E64D61"></path><path d="M54.07,314.43h0l5.79,1.42.86-1.5-4.12-4.31h0a1.07,1.07,0,0,0-.16-.14,1.2,1.2,0,0,0-1.23.16,4.21,4.21,0,0,0-1.82,3.14,1.21,1.21,0,0,0,.48,1.14A.58.58,0,0,0,54.07,314.43Z" style="fill:#E64D61"></path><path d="M54.07,314.43h0l5.79,1.42.86-1.5-4.12-4.31h0a1.07,1.07,0,0,0-.16-.14,1.2,1.2,0,0,0-1.23.16,4.21,4.21,0,0,0-1.82,3.14,1.21,1.21,0,0,0,.48,1.14A.58.58,0,0,0,54.07,314.43Z" style="fill:#fff;opacity:0.30000000000000004"></path><path d="M60.83,314.7a.41.41,0,0,0-.17-.39.42.42,0,0,0-.42.05,1.45,1.45,0,0,0-.62,1.08.38.38,0,0,0,.16.39.41.41,0,0,0,.42-.05A1.44,1.44,0,0,0,60.83,314.7Z" style="fill:#E64D61"></path></g><path d="M65.8,220.2c-6.73,1.14-7.43,2.73-14.54,14.73-6.34,10.7-8.83,14-11,19.1-1,2.31-1.41,6.6-2.11,13.16-.93,8.77-1.27,12.5-2,19.91-.12,1.27-1.11,3.6-1.62,6.36a55.14,55.14,0,0,0-.71,10.74c.17,1.52,1.95,4.37,3.94,6.32.81.79,5,1.91,6.82,2a3.34,3.34,0,0,0,2.77-1.11l-1.43-.82a4.1,4.1,0,0,1-2-3.28,23.15,23.15,0,0,1,0-3.63c.17-1.44.76-1.77,1.24-1.41l4.33-1.25c-.53-4-2.61-9.68-2.43-12.18.35-4.94,7-26.87,7-26.87s9.2-11.79,15.35-20.17C70.81,238.06,73.11,226.15,65.8,220.2Z" style="fill:#b16668"></path><path d="M65.1,219.8c-6.35,1.82-6.69,2.78-11.19,10C49.77,236.4,44.25,246,44.25,246s.14,4.43,5.11,8.78C54.15,259,57.73,258,57.73,258s9.5-11.32,11.81-15.66S72.88,222.59,65.1,219.8Z" style="fill:#E64D61"></path></g><path d="M79.36,209.06c-1.43-2.61-6-4.66-9.67-10.37-5.18-8-3.79-15,.82-17.18.47-8.67,10.38-13.85,20.09-13.87,15.81,0,17.82,11.15,17,18.8-1.15,1.3-1.67,2.05-3.39,2.33,0,0-.78,3.51-.91,3.83a14.56,14.56,0,0,1-2,3.55,14.19,14.19,0,0,1-3,2.82,20.72,20.72,0,0,1-4.21,1.81,13.06,13.06,0,0,0-2.48,1.09,9,9,0,0,0-1.32,1.49l-7.57,8.48C82.15,212.49,80.07,209,79.36,209.06Z" style="fill:#263238"></path><path d="M78.69,198.65a1.26,1.26,0,0,1-.2.2c-1.12.85-1.26-1.2-2.53-2.48a3.49,3.49,0,0,0-3.1-1.23,4,4,0,0,0-3.43,2.77c-1,2.57,1.08,6.53,4.47,7.43a4.94,4.94,0,0,0,5-1.08l1,14c4.71,8.77,23.83,10.26,17.76-.4l-.33-3.9a19.63,19.63,0,0,0,6-1.36,11.62,11.62,0,0,0,6.79-9.66c.31-3-.81-5.56-1-8.55-.13-1.78-.23-4.6-.36-5.75-.17-1.42-1.09-8.18-3.83-9.91-2.85,4.59-12.16,4.73-20.3,4.48a12.52,12.52,0,0,1-1,6.24c-1,2.18-2.7,3.41-4.62,4.86a7,7,0,0,1,.19,3.35A2.15,2.15,0,0,1,78.69,198.65Z" style="fill:#b16668"></path><path d="M91.25,190.25l-4.16,2a2.41,2.41,0,0,1,1.13-3.15A2.24,2.24,0,0,1,91.25,190.25Z" style="fill:#263238"></path><path d="M92.76,202.61l5.62,1.69a3.09,3.09,0,0,1-3.76,2A2.87,2.87,0,0,1,92.76,202.61Z" style="fill:#9a4a4d"></path><path d="M93.06,203.77a2.18,2.18,0,0,0-.44.11,2.84,2.84,0,0,0,2,2.43,2.93,2.93,0,0,0,1.21.09,2.4,2.4,0,0,0-2.77-2.63Z" style="fill:#f28f8f"></path><path d="M89.66,194.43a1.9,1.9,0,1,0,1.59-2.15A1.9,1.9,0,0,0,89.66,194.43Z" style="fill:#263238"></path><path d="M102.9,193a1.82,1.82,0,1,0,1.52-2.07A1.82,1.82,0,0,0,102.9,193Z" style="fill:#263238"></path><path d="M107.24,189.69l-4.44-1.37a2.23,2.23,0,0,1,2.83-1.58A2.45,2.45,0,0,1,107.24,189.69Z" style="fill:#263238"></path><path d="M97,190.43l2.69,10.37,5-2.59A30.08,30.08,0,0,0,97,190.43Z" style="fill:#9a4a4d"></path><path d="M97.26,214s-6.57,0-11.55-2.52a11.27,11.27,0,0,1-4.56-5s1,3.57,2.94,5.33c5,4.62,13.36,4.37,13.36,4.37Z" style="fill:#9a4a4d"></path><path d="M99.77,216.45s5.5,2.81,11.07,13.51c3.75,7.19,4.4,13.35,5.59,24.29A131.57,131.57,0,0,0,117,239.4c-.11-8.23-6.08-21.71-11.3-24.08C103.18,215.75,103,216,99.77,216.45Z" style="fill:#37474f"></path><path d="M65.1,219.8c2.36,1.7,7,6.63,3.33,22.66-1.81,7.88-9.05,16.5-9.05,16.5L57.85,266s13.92-4.57,18.6-26.95c2.79-13.32-1.93-21.42-1.93-21.42A48.2,48.2,0,0,0,65.1,219.8Z" style="fill:#37474f"></path></g></g></g><g id="freepik--Hearts--inject-334"><g id="freepik--hearts--inject-334"><g id="freepik--Heart--inject-334"><path id="freepik--heart--inject-334" d="M160.92,146.28l-4.81-2c-3.67-1.54-12.35-5.92-13.68-13.43a8.09,8.09,0,0,1,14.69-5.92,8.09,8.09,0,0,1,15.83.5c1.34,7.51-5.3,14.61-8.21,17.32Z" style="fill:#E64D61"></path><path id="freepik--heart--inject-334" d="M160.92,146.28l-4.81-2c-3.67-1.54-12.35-5.92-13.68-13.43a8.09,8.09,0,0,1,14.69-5.92,8.09,8.09,0,0,1,15.83.5c1.34,7.51-5.3,14.61-8.21,17.32Z" style="fill:#fff;opacity:0.7000000000000001"></path></g><g id="freepik--heart--inject-334"><path id="freepik--heart--inject-334" d="M183.43,105.75l-2.77-1.16c-2.11-.89-7.09-3.41-7.86-7.72a4.65,4.65,0,0,1,8.45-3.4,4.65,4.65,0,0,1,9.09.28c.77,4.32-3,8.4-4.72,10Z" style="fill:#E64D61"></path><path id="freepik--heart--inject-334" d="M183.43,105.75l-2.77-1.16c-2.11-.89-7.09-3.41-7.86-7.72a4.65,4.65,0,0,1,8.45-3.4,4.65,4.65,0,0,1,9.09.28c.77,4.32-3,8.4-4.72,10Z" style="fill:#fff;opacity:0.5"></path></g><g id="freepik--heart--inject-334"><path id="freepik--heart--inject-334" d="M315.3,119.88l4.6-1.93c3.51-1.47,11.8-5.66,13.07-12.84a7.73,7.73,0,0,0-14-5.65,7.73,7.73,0,0,0-15.13.47c-1.27,7.18,5.07,14,7.85,16.56Z" style="fill:#E64D61"></path><path id="freepik--heart--inject-334" d="M315.3,119.88l4.6-1.93c3.51-1.47,11.8-5.66,13.07-12.84a7.73,7.73,0,0,0-14-5.65,7.73,7.73,0,0,0-15.13.47c-1.27,7.18,5.07,14,7.85,16.56Z" style="fill:#fff;opacity:0.5"></path></g><g id="freepik--heart--inject-334"><path id="freepik--heart--inject-334" d="M340.43,141.33l2.65-1.11c2-.84,6.78-3.25,7.51-7.38a4.44,4.44,0,0,0-8.07-3.24,4.45,4.45,0,0,0-8.7.27c-.73,4.12,2.91,8,4.51,9.51Z" style="fill:#E64D61"></path><path id="freepik--heart--inject-334" d="M340.43,141.33l2.65-1.11c2-.84,6.78-3.25,7.51-7.38a4.44,4.44,0,0,0-8.07-3.24,4.45,4.45,0,0,0-8.7.27c-.73,4.12,2.91,8,4.51,9.51Z" style="fill:#fff;opacity:0.7000000000000001"></path></g><g id="freepik--heart--inject-334"><path id="freepik--heart--inject-334" d="M449.82,165.52l2.64-1.1c2-.85,6.78-3.26,7.51-7.38a4.44,4.44,0,0,0-8.07-3.25,4.44,4.44,0,0,0-8.69.27c-.74,4.12,2.91,8,4.51,9.51Z" style="fill:#E64D61"></path><path id="freepik--heart--inject-334" d="M449.82,165.52l2.64-1.1c2-.85,6.78-3.26,7.51-7.38a4.44,4.44,0,0,0-8.07-3.25,4.44,4.44,0,0,0-8.69.27c-.74,4.12,2.91,8,4.51,9.51Z" style="fill:#fff;opacity:0.5"></path></g><g id="freepik--heart--inject-334"><path id="freepik--heart--inject-334" d="M470.36,186.63l1.77-.74c1.35-.56,4.54-2.18,5-4.94a3,3,0,0,0-5.41-2.18,3,3,0,0,0-5.82.18c-.49,2.77,1.95,5.38,3,6.38Z" style="fill:#E64D61"></path><path id="freepik--heart--inject-334" d="M470.36,186.63l1.77-.74c1.35-.56,4.54-2.18,5-4.94a3,3,0,0,0-5.41-2.18,3,3,0,0,0-5.82.18c-.49,2.77,1.95,5.38,3,6.38Z" style="fill:#fff;opacity:0.7000000000000001"></path></g><g id="freepik--heart--inject-334"><path id="freepik--heart--inject-334" d="M65.8,165.52l-2.65-1.1c-2-.85-6.78-3.26-7.51-7.38a4.44,4.44,0,0,1,8.07-3.25,4.45,4.45,0,0,1,8.7.27c.73,4.12-2.91,8-4.51,9.51Z" style="fill:#E64D61"></path><path id="freepik--heart--inject-334" d="M65.8,165.52l-2.65-1.1c-2-.85-6.78-3.26-7.51-7.38a4.44,4.44,0,0,1,8.07-3.25,4.45,4.45,0,0,1,8.7.27c.73,4.12-2.91,8-4.51,9.51Z" style="fill:#fff;opacity:0.5"></path></g><g id="freepik--heart--inject-334"><path id="freepik--heart--inject-334" d="M45.26,186.63l-1.77-.74c-1.35-.56-4.54-2.18-5-4.94a3,3,0,0,1,5.41-2.18,3,3,0,0,1,5.82.18c.5,2.77-2,5.38-3,6.38Z" style="fill:#E64D61"></path><path id="freepik--heart--inject-334" d="M45.26,186.63l-1.77-.74c-1.35-.56-4.54-2.18-5-4.94a3,3,0,0,1,5.41-2.18,3,3,0,0,1,5.82.18c.5,2.77-2,5.38-3,6.38Z" style="fill:#fff;opacity:0.7000000000000001"></path></g></g></g></svg>